<?xml version="1.0" standalone="no"?>
<!DOCTYPE svg PUBLIC "-//W3C//DTD SVG 1.1//EN" "http://www.w3.org/Graphics/SVG/1.1/DTD/svg11.dtd" >
<svg>
<metadata>
Created by FontForge 20120731 at Wed Nov 27 16:49:07 2019
 By ffonts
Copyright 2015 Google Inc. All Rights Reserved.
</metadata>
<defs>
<font id="NotoSansMyanmarUI-Regular" horiz-adv-x="0" >
  <font-face 
    font-family="Noto Sans Myanmar UI"
    font-weight="400"
    font-stretch="normal"
    units-per-em="1000"
    panose-1="2 11 5 2 4 5 4 2 2 4"
    ascent="800"
    descent="-200"
    bbox="-861 -276 2385 1058"
    underline-thickness="50"
    underline-position="-75"
    unicode-range="U+000D-FE00"
  />
<missing-glyph horiz-adv-x="600" 
d="M94 149v643h411v-643h-411zM145 746v-551h309v551h-309z" />
    <glyph glyph-name=".notdef" horiz-adv-x="600" 
d="M94 149v643h411v-643h-411zM145 746v-551h309v551h-309z" />
    <glyph glyph-name="NULL" 
 />
    <glyph glyph-name="NULL" 
 />
    <glyph glyph-name="CR" unicode="&#xd;" horiz-adv-x="260" 
 />
    <glyph glyph-name="space" unicode=" " horiz-adv-x="260" 
 />
    <glyph glyph-name="ka" unicode="&#x1000;" horiz-adv-x="1124" 
d="M184 140q-36 22 -65.5 59t-46.5 84t-17 98q0 77 36.5 135.5t99.5 91t141 32.5q75 0 133.5 -29.5t93.5 -78.5q40 53 99.5 80.5t133.5 27.5q86 0 148 -33t95.5 -89.5t33.5 -127.5q0 -76 -33.5 -132t-91.5 -86.5t-133 -30.5q-46 0 -79.5 5t-61.5 18l32 60q37 -17 94 -17
q82 0 132 49.5t50 131.5q0 83 -48 134t-137 51q-65 0 -111 -31.5t-85 -87.5q10 -35 10 -73q0 -84 -36.5 -145t-92.5 -96l-51 58q43 32 66 76.5t23 104.5q0 89 -50.5 141.5t-133.5 52.5q-84 0 -135 -52t-51 -142q0 -60 23 -104.5t66 -76.5z" />
    <glyph glyph-name="kha" unicode="&#x1001;" horiz-adv-x="676" 
d="M325 140q-67 0 -123 21t-95 60t-55 92q69 41 130.5 59.5t126.5 18.5t118.5 -17t93.5 -44q9 29 9 62q0 82 -56 132t-147 50q-66 0 -117.5 -28.5t-79.5 -84.5l-70 33q28 65 99 105.5t166 40.5q91 0 157 -33t102.5 -89t36.5 -127q0 -70 -36 -127t-102.5 -90.5t-157.5 -33.5z
M147 288q30 -40 76.5 -60.5t104.5 -20.5t98 18t63 46q-33 24 -78 39t-105 15q-45 0 -85 -11t-74 -26z" />
    <glyph glyph-name="ga" unicode="&#x1002;" horiz-adv-x="668" 
d="M184 140q-36 22 -65.5 59t-46.5 84t-17 98q0 77 36.5 135t100 91t143.5 33q81 0 144 -33.5t98.5 -92t35.5 -133.5q0 -49 -17 -96t-46 -85t-66 -60l-51 58q43 32 66 76.5t23 104.5q0 91 -52.5 143t-134.5 52q-83 0 -136 -52t-53 -143q0 -60 23 -104.5t66 -76.5z" />
    <glyph glyph-name="gha" unicode="&#x1003;" horiz-adv-x="1125" 
d="M324 140q-79 0 -137.5 24t-91 66.5t-32.5 98.5q0 47 22.5 85t64.5 66q24 16 37 30t13 32q0 13 -10 22.5t-27 9.5q-15 0 -29 -7.5t-31 -25.5l-50 45q30 29 54.5 41.5t62.5 12.5q37 0 63 -14t39.5 -35.5t13.5 -43.5q0 -21 -4.5 -36.5t-18 -31t-41.5 -37.5
q-41 -33 -55 -58.5t-14 -54.5q0 -53 45.5 -87.5t132.5 -34.5q53 0 94.5 23.5t65.5 66.5t24 104t-23 106t-66 76l51 57q61 -38 95 -104t34 -137q0 -39 -9 -73q36 -58 88 -88.5t110 -30.5q85 0 134.5 50.5t49.5 134.5t-50 133t-132 49q-29 0 -52 -4t-43 -12l-32 59
q28 13 61.5 18t79.5 5q75 0 133.5 -31t92 -87t33.5 -132q0 -70 -34 -127t-96 -90t-147 -33q-73 0 -133.5 27t-99.5 79q-36 -50 -97 -78t-139 -28z" />
    <glyph glyph-name="nga" unicode="&#x1004;" horiz-adv-x="650" 
d="M341 140q-90 0 -154 32.5t-98 89t-34 129.5q0 71 35.5 127.5t99.5 89t151 32.5q59 0 110.5 -18.5t89 -51t54.5 -76.5l-70 -33q-26 56 -75 84.5t-111 28.5q-89 0 -141 -50.5t-52 -131.5q0 -54 25 -95.5t68.5 -65.5t99.5 -24q62 0 111 28t75 84l70 -32q-17 -44 -54.5 -77
t-89 -51.5t-110.5 -18.5z" />
    <glyph glyph-name="ca" unicode="&#x1005;" horiz-adv-x="674" 
d="M334 140q-85 0 -147.5 32.5t-97 89t-34.5 128.5q0 71 34.5 127.5t98 89.5t149.5 33q85 0 148.5 -32.5t98.5 -89t35 -128.5q0 -73 -36.5 -129.5t-100.5 -88.5t-148 -32zM334 206q58 0 102 23t68 64t24 95q0 84 -52.5 135t-140.5 51q-42 0 -78 -14q35 -32 58.5 -74
t23.5 -98q0 -53 -21.5 -95t-56.5 -75q35 -12 73 -12zM136 388q0 -41 16.5 -75t44.5 -59q61 53 61 134q0 37 -15.5 71.5t-48.5 63.5q-27 -25 -42.5 -59.5t-15.5 -75.5z" />
    <glyph glyph-name="cha" unicode="&#x1006;" horiz-adv-x="1127" 
d="M325 140q-67 0 -123 21t-95 60t-55 92q69 41 130.5 59.5t126.5 18.5t118.5 -17t93.5 -44q9 29 9 62q0 82 -56 132t-147 50q-66 0 -117.5 -28.5t-79.5 -84.5l-70 33q28 65 99 105.5t166 40.5q74 0 132 -22.5t97 -61.5q45 42 100 63t134 21q86 0 149.5 -32t99 -88.5
t35.5 -129.5q0 -74 -36.5 -130t-101 -88t-149.5 -32q-79 0 -136.5 23t-93.5 63q-39 -40 -97 -63t-133 -23zM621 391q0 -56 -23 -104q28 -36 76.5 -58t109.5 -22q91 0 144 50t53 131q0 86 -50.5 136t-140.5 50q-59 0 -107.5 -17t-85.5 -61q24 -48 24 -105zM147 288
q30 -40 76.5 -60.5t104.5 -20.5t98 18t63 46q-33 24 -78 39t-105 15q-45 0 -85 -11t-74 -26z" />
    <glyph glyph-name="ja" unicode="&#x1007;" horiz-adv-x="684" 
d="M336 140q-96 0 -158 35t-92.5 92.5t-30.5 123.5q0 73 35.5 129t98.5 88t147 32q72 0 130 -17t92 -52t34 -89q0 -15 -2 -39.5t-2 -31.5q0 -29 17 -38.5t58 -9.5v-65h-18q-61 0 -93 25.5t-35 68.5q-23 -10 -57 -10q-54 0 -90.5 30.5t-36.5 76.5q0 27 13 48t33 34
q-24 3 -44 3q-85 0 -137 -48.5t-52 -127.5q0 -87 46 -139t149 -52q106 0 165 49l59 -54q-35 -26 -94 -44t-135 -18zM459 441q23 0 39.5 14t16.5 35t-16.5 35.5t-39.5 14.5t-39 -14.5t-16 -35.5t16 -35t39 -14z" />
    <glyph glyph-name="jha" unicode="&#x1008;" horiz-adv-x="869" 
d="M324 140q-80 0 -140.5 32.5t-94.5 89t-34 128.5q0 71 34 127.5t95.5 89.5t142.5 33q83 0 144 -32.5t93.5 -89t32.5 -128.5q0 -66 -28 -118.5t-78 -85.5v-232q0 -77 24 -118.5t75 -41.5t74.5 41.5t23.5 118.5v677h89v-670q0 -232 -188 -232q-187 0 -187 233v186
q-37 -8 -78 -8zM324 206q86 0 134 50.5t48 131.5q0 84 -48 135t-133 51q-40 0 -75 -15q35 -32 58 -74t23 -97q0 -53 -21 -94.5t-56 -74.5q34 -13 70 -13zM136 388q0 -40 15.5 -73.5t40.5 -57.5q58 53 58 131q0 36 -14.5 70t-45.5 62q-25 -25 -39.5 -58.5t-14.5 -73.5z" />
    <glyph glyph-name="nya" unicode="&#x1009;" horiz-adv-x="661" 
d="M333 140q-42 0 -81 11.5t-72 32.5v-277q0 -54 27 -83.5t85 -29.5h559q59 0 85.5 29.5t26.5 83.5v14h89v-2q0 -190 -205 -190h-551q-205 0 -205 192v366l70 32q26 -56 73.5 -84t100.5 -28q54 0 94 24t62 65.5t22 95.5q0 81 -46.5 131.5t-131.5 50.5q-53 0 -100.5 -28.5
t-73.5 -84.5l-70 33q17 44 54 76.5t86 51t102 18.5q85 0 145.5 -32.5t93 -89t32.5 -127.5q0 -73 -31.5 -129.5t-92 -89t-147.5 -32.5z" />
    <glyph glyph-name="nnya" unicode="&#x100a;" horiz-adv-x="1109" 
d="M333 140q-42 0 -81 11.5t-72 32.5v-277q0 -54 27 -83.5t85 -29.5h559q59 0 85.5 29.5t26.5 83.5v14h89v-2q0 -190 -205 -190h-551q-205 0 -205 192v366l70 32q26 -56 73.5 -84t100.5 -28q54 0 94 24t62 65.5t22 95.5q0 81 -46.5 131.5t-131.5 50.5q-53 0 -100.5 -28.5
t-73.5 -84.5l-70 33q17 44 54 76.5t86 51t102 18.5q85 0 145.5 -32.5t93 -89t32.5 -127.5q0 -36 -8 -68q31 -57 76 -86.5t112 -29.5q82 0 130.5 51t48.5 134q0 84 -48.5 133t-128.5 49q-27 0 -50 -4t-42 -12l-32 59q28 13 60.5 18t77.5 5q74 0 131.5 -30.5t90 -87
t32.5 -132.5q0 -72 -34 -128.5t-95 -89t-142 -32.5q-68 0 -126 25.5t-96 77.5q-34 -48 -91.5 -75.5t-136.5 -27.5z" />
    <glyph glyph-name="tta" unicode="&#x100b;" horiz-adv-x="666" 
d="M333 140q-83 0 -143.5 33t-94 90t-33.5 128q0 73 33.5 129t94 88t143.5 32q85 0 150 -39t92 -107l-70 -33q-25 56 -70 84.5t-103 28.5q-81 0 -130 -50t-49 -132q0 -86 48.5 -135.5t130.5 -49.5q58 0 103 28t70 84l70 -32v-213q-49 -32 -112.5 -52.5t-130.5 -20.5
q-43 0 -84 7.5t-79 21.5v-77q35 -12 73.5 -18t89.5 -6q64 0 125 15t118 42v-196h125v-61h-213v154q-37 -11 -76 -15.5t-79 -4.5q-127 0 -241 47v239q49 -37 113 -59t128 -22q83 0 155 37v82q-30 -24 -66.5 -35.5t-87.5 -11.5z" />
    <glyph glyph-name="ttha" unicode="&#x100c;" horiz-adv-x="659" 
d="M326 140q-82 0 -143 33t-94.5 90t-33.5 128q0 73 33.5 129t94.5 88t143 32q85 0 150 -39t92 -107l-70 -33q-25 56 -69.5 84.5t-103.5 28.5q-81 0 -130 -50t-49 -132q0 -86 48 -135.5t131 -49.5q59 0 103.5 28t69.5 84l70 -32v-370q0 -188 -205 -188h-107q-97 0 -149 34.5
t-52 101.5q0 59 43.5 95t108.5 36q49 0 81 -15t63 -40l-55 -47q-17 15 -36 25t-48 10q-24 0 -45.5 -15t-21.5 -49q0 -35 30.5 -53t78.5 -18h114q58 0 85 29.5t27 83.5v280q-30 -24 -66.5 -35.5t-87.5 -11.5z" />
    <glyph glyph-name="dda" unicode="&#x100d;" horiz-adv-x="666" 
d="M334 140q-51 0 -87.5 11.5t-66.5 35.5v-82q72 -37 155 -37q65 0 128 22t113 59v-359h125v-61h-213v298q-73 -26 -153 -26q-67 0 -130 20.5t-113 52.5v213l70 32q25 -56 69.5 -84t103.5 -28q83 0 131 49.5t48 135.5q0 82 -49 132t-130 50q-59 0 -103.5 -28.5t-69.5 -84.5
l-70 33q27 68 92 107t150 39q82 0 143 -32t94.5 -88t33.5 -129q0 -71 -33.5 -128t-94.5 -90t-143 -33z" />
    <glyph glyph-name="ddha" unicode="&#x100e;" horiz-adv-x="677" 
d="M324 140q-79 0 -137.5 24t-91 66.5t-32.5 98.5q0 47 22.5 85t64.5 66q24 16 37 30t13 32q0 13 -10 22.5t-27 9.5q-15 0 -29 -7.5t-31 -25.5l-50 45q30 29 54.5 41.5t62.5 12.5q37 0 63 -14t39.5 -35.5t13.5 -43.5q0 -21 -4.5 -36.5t-18 -31t-41.5 -37.5
q-41 -33 -55 -58.5t-14 -54.5q0 -53 45.5 -87.5t132.5 -34.5q91 0 145.5 51.5t54.5 142.5q0 61 -25.5 106t-71.5 76l51 57q65 -38 101 -104t36 -137q0 -73 -35.5 -132t-102 -93t-160.5 -34z" />
    <glyph glyph-name="nna" unicode="&#x100f;" horiz-adv-x="1255" 
d="M627 140q-73 0 -114.5 31t-41.5 87q0 24 5 43t10 38.5t5 46.5q0 88 -47.5 138.5t-123.5 50.5q-77 0 -125.5 -50.5t-48.5 -136.5q0 -55 23 -95.5t63 -63t91 -22.5q15 0 28.5 0.5t26.5 4.5l21 -63q-20 -5 -40.5 -7t-48.5 -2q-72 0 -129.5 32.5t-91.5 89t-34 129.5
q0 72 32.5 128.5t92.5 88.5t141 32q55 0 99.5 -14.5t77.5 -41.5q26 25 55 40.5t75 15.5q45 0 76 -16.5t54 -39.5q32 26 76.5 41t99.5 15q82 0 141.5 -33t92 -89t32.5 -127q0 -72 -34 -128.5t-91.5 -89.5t-129.5 -33q-29 0 -49.5 2t-40.5 7l20 63q14 -4 27.5 -4.5t28.5 -0.5
q77 0 127 48t50 133t-47 136t-123 51q-79 0 -126.5 -50.5t-47.5 -138.5q0 -27 5 -46.5t10 -38.5t5 -43q0 -59 -43.5 -88.5t-113.5 -29.5zM562 265q0 -23 16.5 -40t49.5 -17q32 0 48.5 17t16.5 40q0 26 -5 42.5t-10 35.5t-5 53q0 78 39 138q-19 18 -38 29.5t-45 11.5
q-32 0 -51 -12.5t-35 -27.5q40 -60 40 -138q0 -36 -5.5 -54.5t-10.5 -34.5t-5 -43z" />
    <glyph glyph-name="ta" unicode="&#x1010;" horiz-adv-x="1124" 
d="M324 140q-80 0 -140.5 32.5t-94.5 89t-34 128.5q0 71 34 127.5t95.5 89.5t142.5 33q79 0 138.5 -28t94.5 -76q39 52 99.5 78t132.5 26q85 0 147 -33t96 -89.5t34 -127.5q0 -76 -33.5 -132t-91.5 -87t-134 -31q-46 0 -79 5t-62 18l32 60q38 -16 95 -16q82 0 132 49t50 132
q0 84 -49.5 135t-134.5 51q-57 0 -109 -30.5t-87 -85.5q9 -34 9 -71q0 -73 -35 -128.5t-98.5 -87t-149.5 -31.5zM327 207q89 0 138.5 49.5t49.5 128.5q0 84 -48.5 136.5t-138.5 52.5q-54 0 -95 -23t-64 -65t-23 -98q0 -55 24 -95.5t65 -63t92 -22.5z" />
    <glyph glyph-name="tha" unicode="&#x1011;" horiz-adv-x="1125" 
d="M329 140q-83 0 -144.5 32.5t-95.5 89t-34 128.5q0 71 34.5 127.5t96.5 89.5t146 33q74 0 130.5 -25.5t92.5 -68.5q45 47 100.5 70.5t136.5 23.5q85 0 147.5 -33t96.5 -89.5t34 -127.5q0 -73 -34.5 -129.5t-98 -88.5t-150.5 -32q-78 0 -135.5 25.5t-94.5 71.5
q-37 -46 -95.5 -71.5t-132.5 -25.5zM332 207q86 0 135.5 50t49.5 131q0 83 -48.5 134.5t-135.5 51.5q-84 0 -135.5 -50.5t-51.5 -135.5q0 -55 24.5 -95.5t66.5 -63t95 -22.5zM609 390q0 -44 -13 -83q25 -46 75 -73.5t117 -27.5q88 0 139.5 50.5t51.5 131.5q0 86 -48.5 136
t-136.5 50q-61 0 -110.5 -20.5t-88.5 -77.5q14 -40 14 -86z" />
    <glyph glyph-name="da" unicode="&#x1012;" horiz-adv-x="640" 
d="M319 140q-104 0 -173.5 35.5t-96.5 99.5l70 32q25 -54 79 -78t122 -24q49 0 92 7t69.5 25.5t26.5 52.5q0 32 -33.5 55t-102.5 23h-14v65h6q51 0 89 19.5t38 53.5q0 30 -24.5 45t-62.5 20t-77 5t-76.5 -6t-62 -20t-24.5 -37q0 -17 13 -29l-69 -34q-10 14 -18.5 29t-8.5 36
q0 55 66.5 90t179.5 35q124 0 186 -33t62 -94q0 -44 -29.5 -68.5t-78.5 -37.5v-4q70 -18 99.5 -48.5t29.5 -74.5q0 -68 -71 -104t-206 -36z" />
    <glyph glyph-name="dha" unicode="&#x1013;" horiz-adv-x="674" 
d="M334 140q-85 0 -147.5 32.5t-97 89t-34.5 128.5q0 71 34.5 127.5t98 89.5t149.5 33t149.5 -33t98 -90t34.5 -127q0 -73 -36.5 -129.5t-100.5 -88.5t-148 -32zM146 388q0 -26 6 -49q35 28 80.5 45t104.5 17q57 0 102.5 -16t81.5 -46q6 23 6 49q0 83 -50.5 134.5
t-138.5 51.5t-140 -50.5t-52 -135.5zM337 207q52 0 92 19t65 52q-31 30 -71 44.5t-86 14.5q-90 0 -157 -59q26 -34 66.5 -52.5t90.5 -18.5z" />
    <glyph glyph-name="na" unicode="&#x1014;" horiz-adv-x="570" 
d="M267 -271v411h-34q-105 0 -152 36t-47 92q0 37 20.5 64.5t55 42.5t75.5 15q82 0 122 -45t47 -138q46 4 71 21.5t25 56.5q0 35 -41 58t-117 46q-75 24 -107.5 53.5t-32.5 75.5q0 35 22 62.5t58 43.5t78 16q46 0 76 -7.5t55 -22.5t52 -38l-52 -50q-33 29 -60 41.5t-67 12.5
q-32 0 -55 -15.5t-23 -38.5q0 -28 30.5 -44.5t93.5 -35.5q56 -18 95.5 -37t59.5 -47t20 -71q0 -69 -50 -104t-129 -41v-413h-89zM231 206h36v1q0 61 -25.5 89t-63.5 28q-26 0 -46 -13.5t-20 -43.5q0 -28 30.5 -44.5t88.5 -16.5z" />
    <glyph glyph-name="pa" unicode="&#x1015;" horiz-adv-x="676" 
d="M338 140q-82 0 -146 33t-100.5 91.5t-36.5 134.5q0 74 35 138.5t94 102.5l51 -57q-43 -31 -66 -76t-23 -106q0 -90 53 -142t139 -52t138.5 52.5t52.5 141.5q0 61 -24.5 106t-71.5 76l50 57q63 -37 100.5 -102.5t37.5 -138.5q0 -77 -37 -135t-101 -91t-145 -33z" />
    <glyph glyph-name="pha" unicode="&#x1016;" horiz-adv-x="675" 
d="M337 140q-82 0 -145.5 33.5t-100 92t-36.5 133.5q0 74 35 138.5t94 102.5l51 -57q-43 -31 -66 -76t-23 -106q0 -90 53 -142t138 -52q39 0 73 12q-33 33 -55.5 80.5t-22.5 107.5q0 78 35 135.5t106 97.5q72 -43 109.5 -106.5t37.5 -134.5q0 -77 -37 -135t-101 -91
t-145 -33zM412 407q0 -43 16 -82.5t48 -68.5q29 25 46 62t17 83q0 45 -18.5 81.5t-46.5 65.5q-34 -29 -48 -61.5t-14 -79.5z" />
    <glyph glyph-name="ba" unicode="&#x1017;" horiz-adv-x="676" 
d="M338 140q-82 0 -146 33t-100.5 91.5t-36.5 134.5q0 74 34.5 138.5t92.5 102.5l58 -45q-6 -15 -6 -31q0 -38 29.5 -64.5t71.5 -26.5q41 0 70.5 26.5t29.5 64.5q0 18 -7 31l58 47q62 -37 98.5 -103.5t36.5 -139.5q0 -77 -37 -135t-101 -91t-145 -33zM335 406
q-57 0 -101.5 29.5t-63.5 75.5q-24 -48 -24 -110q0 -90 53 -142t139 -52t138.5 52.5t52.5 141.5q0 66 -28 115q-17 -48 -62.5 -79t-103.5 -31z" />
    <glyph glyph-name="bha" unicode="&#x1018;" horiz-adv-x="1124" 
d="M304 140q-60 0 -111 18.5t-88 51.5t-55 77l70 32q26 -56 75 -84t111 -28q56 0 99 24t67.5 65.5t24.5 95.5q0 81 -51.5 131.5t-139.5 50.5q-62 0 -111 -28.5t-75 -84.5l-70 33q18 44 55 76.5t88 51t111 18.5q80 0 141 -28.5t97 -77.5q42 52 106 79t144 27q86 0 148 -33
t95.5 -89.5t33.5 -127.5q0 -76 -34 -132t-93.5 -86.5t-138.5 -30.5q-59 0 -92 6.5t-57 15.5l32 60q44 -16 110 -16q82 0 132 49.5t50 131.5q0 83 -50 134t-135 51q-76 0 -128.5 -28.5t-85.5 -86.5q9 -32 9 -67q0 -73 -34 -129.5t-97.5 -89t-152.5 -32.5z" />
    <glyph glyph-name="ma" unicode="&#x1019;" horiz-adv-x="676" 
d="M338 140q-82 0 -146 33t-100.5 91.5t-36.5 134.5q0 74 35 138.5t94 102.5l51 -57q-43 -31 -66 -76t-23 -106q0 -33 8 -61q35 28 80 44.5t103 16.5q57 0 102.5 -16t81.5 -46q8 29 8 62q0 61 -24.5 106t-71.5 76l50 57q63 -37 100.5 -102.5t37.5 -138.5q0 -77 -37 -135
t-101 -91t-145 -33zM337 337q-89 0 -155 -58q52 -72 156 -72q51 0 90.5 19t64.5 53q-30 29 -70 43.5t-86 14.5z" />
    <glyph glyph-name="ya" unicode="&#x101a;" horiz-adv-x="1126" 
d="M333 140q-79 0 -142 33t-99.5 91.5t-36.5 134.5q0 74 35 138.5t94 102.5l51 -57q-43 -31 -66 -76t-23 -106q0 -90 52 -142t135 -52q53 0 95 23.5t65.5 67.5t23.5 103q0 61 -23.5 106t-67.5 76l50 57q61 -37 97 -102.5t36 -138.5q0 -40 -10 -76q35 -56 87 -86t109 -30
q85 0 134.5 50.5t49.5 134.5t-50 133t-132 49q-29 0 -52 -4t-43 -12l-32 59q28 13 61.5 18t79.5 5q75 0 133.5 -31t92 -87t33.5 -132q0 -70 -34 -127t-96 -90t-147 -33q-73 0 -133 26.5t-99 78.5q-37 -49 -96 -77t-132 -28z" />
    <glyph glyph-name="ra" unicode="&#x101b;" horiz-adv-x="689" 
d="M509 -271v659q0 54 -22.5 96t-63.5 66t-96 24q-66 0 -111.5 -32.5t-61.5 -90.5q130 -11 204 -86.5t74 -207.5q-23 -7 -51 -12t-58 -5q-81 0 -141 32.5t-93.5 89t-33.5 128.5t34 128.5t95 89t142 32.5q84 0 144.5 -32.5t93.5 -89t33 -128.5v-600h125v-61h-213zM326 207
q12 0 24 1q-9 81 -63 127t-141 52q0 -80 47.5 -130t132.5 -50z" />
    <glyph glyph-name="la" unicode="&#x101c;" horiz-adv-x="1126" 
d="M309 140q-74 0 -131.5 31t-90 87t-32.5 132q0 70 33 127t93.5 90t144.5 33q76 0 130.5 -30t90 -82t55.5 -118q29 -98 77.5 -150t130.5 -52q48 0 86.5 22.5t61 64t22.5 97.5q0 85 -49 133.5t-128 48.5q-28 0 -50.5 -4t-41.5 -12l-32 59q28 13 60.5 18t77.5 5
q73 0 130.5 -30.5t90.5 -87t33 -132.5q0 -72 -33.5 -128.5t-93.5 -89t-137 -32.5q-116 0 -181 60t-102 170t-85 156.5t-118 46.5q-79 0 -127 -51t-48 -134q0 -82 48.5 -131.5t128.5 -49.5q56 0 92 16l32 -60q-28 -13 -60.5 -18t-77.5 -5z" />
    <glyph glyph-name="wa" unicode="&#x101d;" horiz-adv-x="674" 
d="M334 140q-85 0 -147.5 32.5t-97 89t-34.5 128.5q0 71 34.5 127.5t98 89.5t149.5 33t149.5 -33t98 -90t34.5 -127q0 -73 -36.5 -129.5t-100.5 -88.5t-148 -32zM337 207q86 0 138 50t52 131q0 83 -50.5 134.5t-138.5 51.5t-140 -50.5t-52 -135.5q0 -55 24.5 -95.5t68 -63
t98.5 -22.5z" />
    <glyph glyph-name="sa" unicode="&#x101e;" horiz-adv-x="1127" 
d="M305 140q-89 0 -158 40.5t-97 106.5l70 32q27 -56 75 -84t111 -28q58 0 101.5 24.5t67 66.5t23.5 94q0 82 -52.5 132t-139.5 50q-63 0 -111 -28.5t-75 -84.5l-70 33q28 67 97 106.5t157 39.5t151.5 -32.5t98.5 -88t35 -124.5q0 -36 -9 -69q35 -51 84 -84.5t122 -33.5
q90 0 142.5 51t52.5 133t-52 132t-139 50q-30 0 -55 -4t-45 -12l-32 59q29 13 64 18t82 5q78 0 138.5 -31t95 -87t34.5 -132q0 -74 -37 -130t-102 -88t-150 -32q-76 0 -138 27.5t-103 80.5q-34 -48 -94 -78t-143 -30z" />
    <glyph glyph-name="ha" unicode="&#x101f;" horiz-adv-x="1124" 
d="M331 140q-80 0 -142.5 33t-98 91.5t-35.5 134.5q0 74 35 138.5t94 102.5l51 -57q-43 -31 -66 -76t-23 -106q0 -91 51.5 -142.5t133.5 -51.5q83 0 134 51.5t51 142.5q0 61 -24 106t-67 76l51 57q59 -37 92 -96q39 46 97 71t126 25q85 0 147 -33t96 -89.5t34 -127.5
q0 -76 -33.5 -132t-92 -87t-133.5 -31q-46 0 -79 5t-62 18l32 60q38 -16 95 -16q84 0 133.5 50t49.5 131q0 82 -50 133.5t-136 51.5q-64 0 -110 -29.5t-82 -84.5q7 -34 7 -71q0 -68 -35.5 -124t-97.5 -90t-143 -34z" />
    <glyph glyph-name="lla" unicode="&#x1020;" horiz-adv-x="666" 
d="M333 140q-83 0 -143.5 33t-94 90t-33.5 128q0 73 33.5 129t94 88t143.5 32q85 0 150 -39t92 -107l-70 -33q-25 56 -70 84.5t-103 28.5q-81 0 -130 -50t-49 -132q0 -86 48.5 -135.5t130.5 -49.5q58 0 103 28t70 84l70 -32v-204q-47 -25 -107.5 -44.5t-124.5 -19.5
q-43 0 -84 6.5t-79 18.5v-157q0 -43 27 -68.5t85 -25.5h83q57 0 84 25.5t27 69.5v12h89v-2q0 -169 -205 -169h-74q-205 0 -205 171v249q54 -28 115.5 -45.5t126.5 -17.5q42 0 80.5 9t73.5 22v70q-30 -24 -66.5 -35.5t-87.5 -11.5z" />
    <glyph glyph-name="a_m" unicode="&#x1021;" horiz-adv-x="1068" 
d="M300 140q-97 0 -161.5 35.5t-89.5 99.5l70 32q23 -54 71 -78t110 -24q89 0 129 22.5t40 62.5q0 31 -29.5 54.5t-91.5 23.5h-12v65h5q45 0 79 19.5t34 53.5q0 29 -21.5 44t-55 20.5t-69.5 5.5t-69 -6.5t-54 -20.5t-21 -36q0 -17 13 -29l-69 -34q-11 14 -19 29t-8 36
q0 55 61.5 90t165.5 35q77 0 128.5 -15.5t76.5 -43.5q34 27 86 43t123 16q86 0 151.5 -32.5t102.5 -89t37 -128.5q0 -71 -33 -127.5t-93.5 -89.5t-141.5 -33q-30 0 -58 5t-51 12q0 130 73.5 206.5t202.5 87.5q-18 58 -68.5 90t-125.5 32q-57 0 -101 -16t-79 -46
q-1 -42 -25.5 -65.5t-74.5 -38.5v-4q64 -18 91.5 -48.5t27.5 -74.5q0 -68 -66.5 -104t-190.5 -36zM736 207q92 0 138.5 50t46.5 130q-89 -8 -143 -53.5t-59 -126.5h8.5h8.5z" />
    <glyph glyph-name="a_shn" unicode="&#x1022;" horiz-adv-x="1123" 
d="M170 140q-38 0 -62.5 12.5t-54.5 41.5l50 46q17 -18 31 -25.5t29 -7.5q17 0 27 9t10 22q0 18 -13 32t-37 30q-42 29 -64.5 66.5t-22.5 84.5q0 56 32.5 98.5t91 66.5t137.5 24q77 0 137.5 -27t97.5 -77q39 52 99.5 78t132.5 26q85 0 147 -33t96 -89.5t34 -127.5
q0 -76 -33.5 -132t-92 -87t-133.5 -31q-46 0 -79.5 5t-61.5 18l32 60q38 -16 95 -16q82 0 132 49t50 132q0 84 -49.5 135t-134.5 51q-57 0 -109 -30.5t-88 -86.5q10 -36 10 -76q0 -71 -34 -137t-95 -104l-51 58q43 32 66 76t23 105t-24 104.5t-65.5 67t-94.5 23.5
q-87 0 -132.5 -35t-45.5 -88q0 -28 14 -54t55 -58t52.5 -53.5t11.5 -51.5q0 -22 -13.5 -43.5t-39.5 -36t-63 -14.5z" />
    <glyph glyph-name="i_m" unicode="&#x1023;" horiz-adv-x="1100" 
d="M184 140q-36 22 -65.5 59t-46.5 84t-17 98q0 77 35.5 135.5t97 91t138.5 32.5q70 0 132.5 -33t91.5 -95q33 65 93.5 96.5t130.5 31.5q76 0 137.5 -32.5t97.5 -91t36 -135.5q0 -49 -16.5 -95.5t-45.5 -84.5t-67 -61l-51 58q43 32 66 76.5t23 104.5q0 90 -50 142.5
t-130 52.5q-88 0 -134 -55.5t-46 -158.5v-104h-88v98q0 101 -44.5 160.5t-135.5 59.5q-79 0 -129.5 -52t-50.5 -143q0 -60 23 -104.5t66 -76.5zM828 -271l-49 49q32 24 49 57t17 76q0 65 -35 99.5t-89 34.5q-63 0 -97 -38.5t-34 -113.5v-78h-80v79q0 71 -34 111t-96 40
q-55 0 -90 -33.5t-35 -96.5q0 -46 16.5 -79.5t46.5 -57.5l-45 -49q-42 28 -70 77.5t-28 110.5q0 56 27 98.5t73.5 66.5t104.5 24q51 0 98 -21.5t71 -70.5q25 46 71 69t101 23q57 0 103 -24t73.5 -67.5t27.5 -101.5q0 -35 -9.5 -66t-26.5 -57h99v-61h-160z" />
    <glyph glyph-name="ii" unicode="&#x1024;" horiz-adv-x="1343" 
d="M1164 -271v622q0 81 -17.5 142.5t-57 111t-106.5 93.5q-47 32 -74.5 59.5t-39 57.5t-11.5 68q0 45 25.5 84t70 62.5t101.5 23.5q72 0 121 -28.5t72 -79.5l-68 -33q-35 80 -120 80q-54 0 -85.5 -32t-31.5 -77q0 -35 18.5 -61.5t68.5 -60.5q84 -57 132.5 -117.5t69 -133
t20.5 -165.5v-616h-88zM184 140q-36 22 -65.5 59t-46.5 84t-17 98q0 77 35.5 135.5t97 91t138.5 32.5q74 0 131.5 -28.5t93.5 -77.5q79 106 225 106q89 0 149.5 -34t91 -94.5t30.5 -139.5v-455q0 -188 -205 -188h-542q-124 0 -184.5 30.5t-60.5 102.5q0 80 84 120.5
t236 40.5q113 0 207 -19t163 -48l-39 -60q-60 26 -144 42.5t-187 16.5q-230 0 -230 -90q0 -29 24 -44.5t62 -21t81 -5.5h535q57 0 84.5 29t27.5 81v465q0 97 -47.5 150.5t-134.5 53.5q-63 0 -107.5 -31.5t-81.5 -86.5q9 -35 9 -74q0 -83 -36.5 -144.5t-92.5 -96.5l-51 58
q43 32 66 76.5t23 104.5q0 90 -49.5 142t-130.5 52q-80 0 -130 -51.5t-50 -142.5q0 -60 23 -104.5t66 -76.5z" />
    <glyph glyph-name="u_m" unicode="&#x1025;" horiz-adv-x="661" 
d="M333 140q-51 0 -87.5 11.5t-66.5 35.5v-280q0 -54 27 -83.5t85 -29.5h114q48 0 78.5 18t30.5 53q0 34 -21.5 49t-45.5 15q-29 0 -48 -10t-36 -25l-55 47q31 25 63 40t81 15q65 0 108.5 -36t43.5 -95q0 -67 -52 -101.5t-149 -34.5h-107q-205 0 -205 188v370l70 32
q25 -56 70 -84t103 -28q82 0 130.5 49.5t48.5 135.5q0 82 -49 132t-130 50q-58 0 -103 -28.5t-70 -84.5l-70 33q27 68 92 107t150 39q83 0 143.5 -32t94 -88t33.5 -129q0 -71 -33.5 -128t-94 -90t-143.5 -33z" />
    <glyph glyph-name="uu" unicode="&#x1026;" horiz-adv-x="661" 
d="M333 140q-51 0 -87.5 11.5t-66.5 35.5v-280q0 -54 27 -83.5t85 -29.5h114q48 0 78.5 18t30.5 53q0 34 -21.5 49t-45.5 15q-29 0 -48 -10t-36 -25l-55 47q31 25 63 40t81 15q65 0 108.5 -36t43.5 -95q0 -67 -52 -101.5t-149 -34.5h-107q-205 0 -205 188v370l70 32
q25 -56 70 -84t103 -28q82 0 130.5 49.5t48.5 135.5q0 82 -49 132t-130 50q-58 0 -103 -28.5t-70 -84.5l-70 33q27 68 92 107t150 39q83 0 143.5 -32t94 -88t33.5 -129q0 -71 -33.5 -128t-94 -90t-143.5 -33zM332 712q-54 0 -95 22.5t-63.5 61t-22.5 86.5q0 46 22.5 84.5
t63.5 61.5t97 23q57 0 98.5 -23.5t63.5 -62.5t22 -87q0 -47 -23 -84.5t-64.5 -59.5t-98.5 -22zM231 880q0 -7 1 -13q19 16 44.5 26t58.5 10q32 0 57 -9t46 -25v7q0 49 -27.5 82t-75.5 33q-49 0 -76.5 -31.5t-27.5 -79.5zM335 773q28 0 49.5 11.5t34.5 30.5q-18 14 -39 22
t-45 8q-23 0 -43.5 -8t-41.5 -22q29 -42 85 -42z" />
    <glyph glyph-name="e_m" unicode="&#x1027;" horiz-adv-x="631" 
d="M326 140q-83 0 -144 32.5t-94 89t-33 127.5q0 73 33.5 130t94.5 89t143 32q93 0 157 -40t93 -107q-50 -30 -109.5 -51t-125.5 -21q-60 0 -104.5 14t-76.5 35q-8 -15 -11 -36.5t-3 -45.5q0 -20 4 -41.5t10 -36.5q32 21 76.5 35.5t104.5 14.5q66 0 125.5 -21.5t109.5 -50.5
q-29 -67 -93 -107.5t-157 -40.5zM344 484q30 0 65.5 8t67.5 26q-50 56 -152 56q-51 0 -82 -13.5t-49 -34.5q26 -18 60 -30t90 -12zM325 207q101 0 152 55q-32 19 -67.5 27t-65.5 8q-56 0 -90 -11.5t-60 -31.5q18 -21 49 -34t82 -13z" />
    <glyph glyph-name="e_mon" unicode="&#x1028;" horiz-adv-x="687" 
d="M356 -271q-81 0 -140.5 33t-92 91.5t-32.5 137.5v387q0 76 32 135t91.5 93t141.5 34q84 0 146 -32t96 -88.5t34 -129.5q0 -44 -15.5 -88.5t-44 -81t-67.5 -58.5t-87 -22q-39 0 -68.5 21.5t-29.5 61.5q0 27 11.5 48t35.5 44t24 46q0 13 -8 23.5t-25 10.5q-18 0 -30 -11.5
t-23 -33.5l-57 26q20 38 45.5 60t70.5 22q46 0 76.5 -25.5t30.5 -68.5q0 -25 -13.5 -49t-35.5 -47t-22 -43q0 -9 5 -15.5t17 -6.5q28 0 51.5 18t39.5 46.5t25 62t9 63.5q0 84 -50 135.5t-135 51.5q-87 0 -136.5 -54t-49.5 -147v-389q0 -94 50 -147.5t135 -53.5
q57 0 98.5 24.5t64.5 64.5t23 87v4h85v-4q0 -63 -33.5 -116.5t-95.5 -86.5t-147 -33z" />
    <glyph glyph-name="o_m" unicode="&#x1029;" horiz-adv-x="1369" 
d="M296 -271q-205 0 -205 192v938q0 193 205 193h772q205 0 205 -193v-26h-89v41q0 54 -27 83t-85 29h-780q-58 0 -85 -29t-27 -83v-967q0 -54 27 -83.5t85 -29.5h780q58 0 85 29.5t27 83.5v280q-36 -23 -80.5 -35t-96.5 -12q-139 0 -220 107q-34 -47 -91.5 -77t-136.5 -30
q-90 0 -154.5 40.5t-90.5 106.5l70 32q48 -112 176 -112q54 0 95 24.5t64 66.5t23 94q0 54 -23.5 95t-64.5 64t-94 23q-128 0 -176 -113l-70 33q26 67 90.5 106.5t153.5 39.5q82 0 144 -32.5t96.5 -88t34.5 -124.5q0 -36 -10 -70q33 -50 77 -83.5t110 -33.5q90 0 142.5 51
t52.5 133t-52 132t-139 50q-27 0 -49.5 -4t-40.5 -12l-32 59q27 13 59.5 18t76.5 5q78 0 138.5 -31t95 -87t34.5 -132q0 -57 -23 -105v-364q0 -192 -205 -192h-772z" />
    <glyph glyph-name="au" unicode="&#x102a;" horiz-adv-x="2452" 
d="M326 140q-81 0 -142.5 33.5t-96.5 90.5t-35 127q0 71 35.5 127t97 89t141.5 33q95 0 157 -40.5t85 -105.5l-70 -33q-22 56 -64 84.5t-110 28.5q-50 0 -91 -22.5t-65.5 -63.5t-24.5 -96q0 -32 9 -62q40 27 90 44t100 17q70 0 123.5 -18.5t110.5 -59.5q-20 -79 -85 -126
t-165 -47zM345 325q-46 0 -87.5 -15.5t-75.5 -39.5q22 -28 57 -45.5t84 -17.5q60 0 97.5 20.5t60.5 60.5q-24 15 -55.5 26t-80.5 11zM916 -271q-205 0 -205 192v938q0 193 205 193h772q205 0 205 -193v-26h-89v41q0 54 -27 83t-85 29h-780q-58 0 -85 -29t-27 -83v-967
q0 -54 27 -83.5t85 -29.5h780q58 0 85 29.5t27 83.5v280q-36 -23 -80.5 -35t-96.5 -12q-139 0 -220 107q-34 -47 -91.5 -77t-136.5 -30q-90 0 -154.5 40.5t-90.5 106.5l70 32q48 -112 176 -112q54 0 95 24.5t64 66.5t23 94q0 54 -23.5 95t-64.5 64t-94 23q-128 0 -176 -113
l-70 33q26 67 90.5 106.5t153.5 39.5q82 0 144 -32.5t96.5 -88t34.5 -124.5q0 -36 -10 -70q33 -50 77 -83.5t110 -33.5q90 0 142.5 51t52.5 133t-52 132t-139 50q-27 0 -49.5 -4t-40.5 -12l-32 59q27 13 59.5 18t76.5 5q78 0 138.5 -31t95 -87t34.5 -132q0 -57 -23 -105
v-364q0 -192 -205 -192h-772zM2117 140q-45 0 -77.5 5t-60.5 18l32 60q36 -16 92 -16q83 0 130 50.5t47 135.5q0 53 -24 94t-68.5 64.5t-104.5 23.5q-58 0 -114.5 -26t-110.5 -82l-52 49q54 57 120 90.5t156 33.5q84 0 149.5 -32.5t103 -89t37.5 -126.5q0 -74 -34 -130.5
t-91.5 -89t-129.5 -32.5zM2163 712q-51 26 -83 70.5t-32 103.5q0 51 24 88t65 57t93 20q51 0 91.5 -19t63.5 -54l-57 -40q-16 25 -41 39t-56 14q-49 0 -76 -30.5t-27 -74.5q0 -47 24.5 -77.5t54.5 -49.5z" />
    <glyph glyph-name="medial_ra" unicode="&#x103c;" horiz-adv-x="229" 
d="M296 -270q-205 0 -205 192v937q0 193 205 193h322q206 0 206 -193v-26h-89v41q0 54 -27.5 83.5t-84.5 29.5h-331q-58 0 -84.5 -29.5t-26.5 -83.5v-966q0 -54 26.5 -84t84.5 -30h331q57 0 84.5 30t27.5 84v379h89v-365q0 -192 -206 -192h-322z" />
    <glyph glyph-name="medial_wa" unicode="&#x103d;" 
d="M-328 -234q-55 0 -95.5 22.5t-63 61t-22.5 86.5t22.5 86t63.5 60.5t97 22.5q58 0 99 -23.5t63 -62.5t22 -87q0 -44 -22.5 -82t-64 -61t-99.5 -23zM-325 -172q45 0 74 29t29 74q0 49 -27.5 81t-75.5 32q-49 0 -77 -31t-28 -80q0 -45 28.5 -75t76.5 -30z" />
    <glyph glyph-name="great_sa" unicode="&#x103f;" horiz-adv-x="1584" 
d="M305 140q-89 0 -158 40.5t-97 106.5l70 32q27 -56 75 -84t111 -28q58 0 101.5 24.5t67 66.5t23.5 94q0 82 -52.5 132t-139.5 50q-63 0 -111 -28.5t-75 -84.5l-70 33q28 67 97 106.5t157 39.5t151.5 -32.5t98.5 -88t35 -124.5q0 -43 -14 -83q35 -45 81.5 -74.5
t115.5 -29.5q90 0 142.5 51t52.5 133t-52 132t-139 50q-30 0 -55 -4t-45 -12l-32 59q29 13 64 18t82 5q78 0 138.5 -31t95 -87t34.5 -132q0 -41 -12 -77q35 -46 81.5 -75.5t115.5 -29.5q90 0 142.5 51t52.5 133t-52 132t-139 50q-30 0 -55 -4t-45 -12l-32 59q29 13 64 18
t82 5q78 0 138.5 -31t95 -87t34.5 -132q0 -74 -37 -130t-102 -88t-150 -32q-73 0 -133 25t-101 74q-38 -46 -99 -72.5t-138 -26.5q-73 0 -133 25t-101 74q-35 -44 -93 -71.5t-137 -27.5z" />
    <glyph glyph-name="zero_m" unicode="&#x1040;" horiz-adv-x="652" 
d="M323 140q-81 0 -141 32.5t-93.5 89t-33.5 128.5q0 70 33 127t93.5 90t144.5 33t144.5 -33t93.5 -90t33 -127q0 -69 -33 -125.5t-94.5 -90.5t-146.5 -34zM326 207q81 0 130.5 50t49.5 131q0 83 -48 134.5t-131 51.5t-132 -51t-49 -135q0 -55 23 -95.5t64 -63t93 -22.5z
" />
    <glyph glyph-name="one_m" unicode="&#x1041;" horiz-adv-x="623" 
d="M297 140q-85 0 -150.5 40.5t-91.5 106.5l70 32q25 -56 70 -84t103 -28q83 0 131 50t48 135q0 82 -48.5 132t-130.5 50q-58 0 -103 -28.5t-70 -84.5l-70 33q26 67 91.5 106.5t150.5 39.5q83 0 144 -32.5t94 -89t33 -127.5q0 -73 -34 -129.5t-95 -89t-142 -32.5z" />
    <glyph glyph-name="two_m" unicode="&#x1042;" horiz-adv-x="675" 
d="M314 -271q-81 0 -142 31.5t-95 86t-34 124.5v2h85v-4q0 -51 24 -91t66.5 -63t96.5 -23q85 0 134.5 53t49.5 153v633h85v-631q0 -84 -33.5 -145t-94 -93.5t-142.5 -32.5z" />
    <glyph glyph-name="three_m" unicode="&#x1043;" horiz-adv-x="618" 
d="M380 -271l-330 558l70 32q25 -56 69.5 -84t103.5 -28q83 0 131 49.5t48 135.5q0 82 -49 132t-130 50q-59 0 -103.5 -28.5t-69.5 -84.5l-70 33q27 68 92 107t150 39q82 0 143 -32.5t94.5 -89t33.5 -127.5q0 -73 -33.5 -129.5t-94.5 -89t-143 -32.5q-40 0 -79 14
q23 -32 49.5 -71t45.5 -72l169 -282h-97z" />
    <glyph glyph-name="four_m" unicode="&#x1044;" horiz-adv-x="618" 
d="M141 -271l169 282q12 20 28.5 45.5t34 51.5t32.5 45q-39 -13 -79 -13q-82 0 -143 33t-94.5 90t-33.5 128q0 73 33.5 129t94.5 88t143 32q86 0 151 -40.5t91 -105.5l-70 -33q-25 56 -70 84.5t-103 28.5q-82 0 -130.5 -50t-48.5 -132q0 -85 48 -135t131 -50q58 0 103 28
t70 84l70 -32l-330 -558h-97z" />
    <glyph glyph-name="five_m" unicode="&#x1045;" horiz-adv-x="675" 
d="M314 -271q-82 0 -143 31.5t-94.5 86.5t-33.5 124v2h85v-4q0 -51 23.5 -91t66 -63t97.5 -23q85 0 134.5 53t49.5 153v393q0 85 -45.5 135.5t-130.5 50.5q-55 0 -98 -21t-66 -60q9 7 26.5 9.5t35.5 2.5q37 0 68 -15.5t50 -43t19 -63.5t-20 -65t-54 -46.5t-76 -17.5
q-69 0 -111 40.5t-42 105.5q0 71 35 124.5t96 83t138 29.5q82 0 140 -32t89 -88.5t31 -129.5v-390q0 -84 -33.5 -145t-94 -93.5t-142.5 -32.5zM208 318q30 0 51 19t21 45q0 27 -21 46t-51 19q-29 0 -50 -19t-21 -46q0 -26 21 -45t50 -19z" />
    <glyph glyph-name="six_m" unicode="&#x1046;" horiz-adv-x="720" 
d="M377 140q-92 0 -156 33t-97 92t-33 138v377q0 130 76 201t210 71q89 0 154 -30t101 -84t36 -127v-3h-85v4q0 50 -24.5 90t-70 63.5t-108.5 23.5q-94 0 -149 -50.5t-55 -158.5v-374q0 -99 53.5 -151t153.5 -52q59 0 104.5 22.5t70.5 61.5t25 90q0 13 -7 24t-24 11
q-26 0 -48.5 -6.5t-47 -13t-53.5 -6.5q-67 0 -106.5 36.5t-39.5 93.5q0 51 38.5 88t108.5 37q36 0 65 -11t51 -40l-61 -29q-7 11 -22 15.5t-28 4.5q-32 0 -49.5 -19.5t-17.5 -45.5q0 -32 19.5 -51t47.5 -19q25 0 48 8t48 15.5t57 7.5q51 0 78.5 -28t27.5 -70
q0 -68 -34.5 -122t-99.5 -85.5t-157 -31.5z" />
    <glyph glyph-name="seven_m" unicode="&#x1047;" horiz-adv-x="646" 
d="M357 -271q-77 0 -118 39.5t-41 101.5q0 31 7.5 58t26.5 58.5t52 73t83 100.5q43 50 74 89.5t48 78t17 87.5q0 45 -23 82t-64.5 58.5t-96.5 21.5q-81 0 -134 -52.5t-53 -148.5q0 -62 26.5 -104t55.5 -59l-42 -48q-29 10 -57.5 40t-48 73.5t-19.5 96.5q0 81 33 140.5
t93.5 92t144.5 32.5q78 0 139 -28.5t96 -80t35 -120.5q0 -36 -13.5 -74.5t-46.5 -88.5t-92 -118q-66 -77 -110.5 -139.5t-44.5 -118.5q0 -42 20.5 -62.5t57.5 -20.5q54 0 80 56l63 -41q-28 -42 -62.5 -58.5t-85.5 -16.5z" />
    <glyph glyph-name="eight_m" unicode="&#x1048;" horiz-adv-x="652" 
d="M200 139q-69 37 -107 102.5t-38 139.5q0 77 35.5 135.5t97 91t138.5 32.5q76 0 137.5 -32.5t97.5 -91t36 -135.5q0 -49 -17 -96t-46 -85t-66 -60l-51 58q43 32 66 76.5t23 104.5q0 91 -50 143t-130 52q-42 0 -78 -14q37 -32 60 -75.5t23 -104.5q0 -122 -131 -241z
M136 379q0 -43 14.5 -78t39.5 -63q24 30 42 64.5t18 76.5q0 39 -14 77.5t-46 65.5q-54 -53 -54 -143z" />
    <glyph glyph-name="nine_m" unicode="&#x1049;" horiz-adv-x="720" 
d="M377 -271q-136 0 -211 71t-75 200v378q0 78 33 137t96.5 92t156.5 33q91 0 156.5 -31.5t100 -85t34.5 -121.5q0 -41 -27.5 -69.5t-78.5 -28.5q-33 0 -57.5 7t-47 13.5t-48.5 6.5q-29 0 -49 -18t-20 -49q0 -25 18 -45t51 -20q13 0 28 5t22 15l61 -29q-22 -28 -51 -39.5
t-65 -11.5q-72 0 -109.5 37.5t-37.5 87.5q0 57 39.5 94t106.5 37q31 0 55 -6.5t47 -13t47 -6.5q18 0 25.5 11t7.5 24q0 51 -26 90t-71.5 61t-104.5 22q-101 0 -155 -52.5t-54 -150.5v-374q0 -107 56 -157t150 -50q64 0 109.5 23t70.5 62.5t25 89.5v5h83v-3q0 -75 -36.5 -129
t-102 -83t-152.5 -29z" />
    <glyph glyph-name="little_section" unicode="&#x104a;" horiz-adv-x="270" 
d="M91 149v482h88v-482h-88z" />
    <glyph glyph-name="big_section" unicode="&#x104b;" horiz-adv-x="462" 
d="M91 149v482h88v-482h-88zM282 149v482h88v-482h-88z" />
    <glyph glyph-name="locative" unicode="&#x104c;" horiz-adv-x="666" 
d="M363 712q-51 26 -83 70.5t-32 103.5q0 51 24 88t65 57t93 20q51 0 91.5 -19t63.5 -54l-57 -40q-16 25 -41 39t-56 14q-49 0 -76 -30.5t-27 -74.5q0 -47 24.5 -77.5t54.5 -49.5zM334 140q-51 0 -87.5 11.5t-66.5 35.5v-82q72 -37 155 -37q65 0 128 22t113 59v-228
q0 -192 -205 -192h-119q-75 0 -117.5 32.5t-42.5 82.5q0 47 35 79t92 32q42 0 70.5 -12.5t58.5 -41.5l-50 -46q-36 34 -68 34q-23 0 -38 -12t-15 -30q0 -27 22.5 -40t80.5 -13h96q58 0 85 29.5t27 83.5v120q-73 -26 -153 -26q-67 0 -130 20.5t-113 52.5v213l70 32
q25 -56 69.5 -84t103.5 -28q83 0 131 49.5t48 135.5q0 82 -49 132t-130 50q-59 0 -103.5 -28.5t-69.5 -84.5l-70 33q27 68 92 107t150 39q82 0 143 -32t94.5 -88t33.5 -129q0 -71 -33.5 -128t-94.5 -90t-143 -33z" />
    <glyph glyph-name="completed" unicode="&#x104d;" horiz-adv-x="892" 
d="M256 -271q-96 0 -148.5 34.5t-52.5 101.5q0 59 43.5 95t108.5 36q48 0 80.5 -15t63.5 -40l-55 -47q-18 15 -36.5 25t-47.5 10q-24 0 -45.5 -15t-21.5 -49q0 -35 30 -53t79 -18h347q59 0 85.5 29.5t26.5 83.5v444q0 81 -17.5 142t-57 111t-106.5 94q-70 46 -97.5 87
t-27.5 98q0 46 25.5 84.5t70.5 62t101 23.5q72 0 121 -28.5t72 -79.5l-68 -33q-35 80 -120 80q-53 0 -85 -31t-32 -78q0 -67 71 -111q89 -57 141 -119t74.5 -137.5t22.5 -170.5v-424q0 -192 -204 -192h-341zM509 -91v479q0 54 -22.5 96t-63.5 66t-96 24q-66 0 -111.5 -32.5
t-61.5 -90.5q130 -11 204 -86.5t74 -207.5q-23 -7 -51 -12t-58 -5q-81 0 -141 32.5t-93.5 89t-33.5 128.5t34 128.5t95 89t142 32.5q84 0 144.5 -32.5t93.5 -89t33 -128.5v-481h-88zM326 207q12 0 23 1q-5 79 -61.5 126t-141.5 53q0 -80 47.5 -130t132.5 -50z" />
    <glyph glyph-name="aforementioned" unicode="&#x104e;" horiz-adv-x="659" 
d="M326 140q-82 0 -143 33t-94.5 90t-33.5 128q0 73 33.5 129t94.5 88t143 32q86 0 151 -40.5t91 -105.5l-70 -33q-25 56 -70 84.5t-103 28.5q-82 0 -130.5 -50t-48.5 -132q0 -85 48 -135t131 -50q58 0 103 28t70 84l70 -32v-558h-88v453q-31 -20 -70 -31t-84 -11z" />
    <glyph glyph-name="genitive" unicode="&#x104f;" horiz-adv-x="1137" 
d="M958 149v296q0 77 -16 128t-49.5 84t-86.5 56q-80 35 -117 78t-37 105q0 44 25.5 79t69 56t96.5 21q75 0 124 -29t72 -80l-65 -31q-35 80 -123 80q-33 0 -58.5 -13.5t-40.5 -35t-15 -45.5q0 -42 25 -69t86 -54q80 -35 123 -86t59 -117t16 -150v-273h-88zM326 140
q-83 0 -144 32.5t-94 89t-33 127.5q0 73 33.5 130t94.5 89t143 32q63 0 113.5 -19t85.5 -53q20 34 56 53t85 19q83 0 129.5 -46t46.5 -119v-326h-88v327q0 44 -22.5 71t-67.5 27q-32 0 -57.5 -20t-30.5 -61q-50 -30 -109.5 -51t-125.5 -21q-60 0 -104.5 14t-76.5 35
q-8 -15 -11 -36.5t-3 -45.5q0 -20 4 -41.5t10 -36.5q32 21 76.5 35.5t104.5 14.5q66 0 125.5 -21.5t109.5 -50.5q-29 -67 -93 -107.5t-157 -40.5zM344 484q30 0 65.5 8t67.5 26q-50 56 -152 56q-51 0 -82 -13.5t-49 -34.5q26 -18 60 -30t90 -12zM325 207q101 0 152 55
q-32 19 -67.5 27t-65.5 8q-56 0 -90 -11.5t-60 -31.5q18 -21 49 -34t82 -13z" />
    <glyph glyph-name="sha_skt" unicode="&#x1050;" horiz-adv-x="668" 
d="M184 140q-36 22 -65.5 59t-46.5 84t-17 98q0 77 36.5 135t100 91t143.5 33q81 0 144 -33.5t98.5 -92t35.5 -133.5q0 -49 -17 -96t-46 -85t-66 -60l-51 58q43 32 66 76.5t23 104.5q0 91 -52.5 143t-134.5 52q-83 0 -136 -52t-53 -143q0 -60 23 -104.5t66 -76.5zM336 323
q-26 0 -43.5 14.5t-17.5 46.5t17.5 46t43.5 14q28 0 45.5 -14t17.5 -46t-18 -46.5t-45 -14.5z" />
    <glyph glyph-name="ssa_skt" unicode="&#x1051;" horiz-adv-x="676" 
d="M338 140q-82 0 -146 33t-100.5 91.5t-36.5 134.5q0 74 35 138.5t94 102.5l51 -57q-43 -31 -66 -76t-23 -106q0 -90 53 -142t139 -52t138.5 52.5t52.5 141.5q0 61 -24.5 106t-71.5 76l50 57q63 -37 100.5 -102.5t37.5 -138.5q0 -77 -37 -135t-101 -91t-145 -33zM336 336
q-26 0 -43.5 14.5t-17.5 46.5q0 33 17.5 47t43.5 14q28 0 45.5 -14t17.5 -47q0 -31 -18 -46t-45 -15z" />
    <glyph glyph-name="vocR_skt" unicode="&#x1052;" horiz-adv-x="661" 
d="M336 140q-87 0 -150 32t-97 90t-34 137q0 74 35 138.5t94 102.5l51 -57q-43 -31 -66 -76t-23 -106q0 -94 53.5 -144t140.5 -50q83 0 128 34.5t45 87.5q0 28 -12.5 51t-34.5 40q-37 29 -56.5 49.5t-27 38.5t-7.5 39q0 36 31 64.5t87 28.5q39 0 64 -12.5t56 -41.5l-50 -45
q-17 18 -32 25.5t-31 7.5q-18 0 -29 -9.5t-11 -22.5q0 -15 11 -27t31 -27q40 -30 61.5 -53t30.5 -47t9 -59q0 -57 -33 -99.5t-93.5 -66t-140.5 -23.5z" />
    <glyph glyph-name="vocRR_skt" unicode="&#x1053;" horiz-adv-x="661" 
d="M330 140q-124 0 -195.5 52t-71.5 137q0 35 9.5 59.5t31.5 47t60 51.5q20 16 31 28t11 27q0 13 -10.5 22.5t-28.5 9.5q-16 0 -31 -7.5t-33 -25.5l-50 45q31 29 56 41.5t64 12.5t65.5 -14.5t40 -36t13.5 -42.5t-4.5 -36t-19 -31t-43.5 -38q-43 -34 -57.5 -59t-14.5 -54
q0 -53 45.5 -87.5t134.5 -34.5t134.5 34.5t45.5 87.5q0 55 -48 92q-39 30 -58 50.5t-25.5 37.5t-6.5 38q0 36 31 64.5t87 28.5q39 0 64 -12.5t56 -41.5l-50 -45q-17 18 -32 25.5t-31 7.5q-18 0 -29 -9.5t-11 -22.5q0 -22 33 -46q52 -37 81 -74.5t29 -92.5t-34 -98t-95.5 -67
t-143.5 -24z" />
    <glyph glyph-name="vocL_skt" unicode="&#x1054;" horiz-adv-x="660" 
d="M341 140q-85 0 -149.5 33t-100.5 89.5t-36 126.5q0 71 35.5 127.5t99.5 90t151 33.5q100 0 170.5 -46t92.5 -126q-69 -41 -124.5 -60t-122.5 -19q-58 0 -110 17t-92 45q-9 -30 -9 -63q0 -54 25 -95t68.5 -63.5t99.5 -22.5q67 0 114.5 28t72.5 84l70 -32
q-26 -66 -93 -106.5t-162 -40.5zM338 574q-54 0 -91.5 -18t-60.5 -46q33 -25 76.5 -40t97.5 -15q46 0 83 11t66 27q-54 81 -171 81z" />
    <glyph glyph-name="vocLL_skt" unicode="&#x1055;" horiz-adv-x="651" 
d="M242 140q-87 0 -137 67t-50 182q0 71 35 127.5t99.5 90t153.5 33.5q63 0 117 -21t91.5 -59.5t52.5 -91.5q-66 -41 -124.5 -60t-120.5 -19q-63 0 -114.5 17t-90.5 45q-8 -29 -8 -63q0 -46 9 -87.5t30 -67.5t59 -26q28 0 44.5 17.5t16.5 43.5v9h85v-9q0 -29 15.5 -45
t41.5 -16q27 0 42.5 18.5t17.5 51.5l89 -14q0 -53 -36 -88t-101 -35q-41 0 -67 10.5t-46 34.5q-38 -45 -104 -45zM340 574q-57 0 -95.5 -17t-61.5 -46q33 -25 76.5 -40.5t102.5 -15.5q41 0 78.5 11t68.5 27q-58 81 -169 81z" />
    <glyph glyph-name="_vocR_skt" unicode="&#x1056;" horiz-adv-x="369" 
d="M95 140q-79 0 -140 32t-95 93l64 38q57 -96 173 -96q65 0 102.5 26.5t37.5 68.5q0 28 -27.5 50t-73.5 44q-46 21 -75.5 53.5t-29.5 79.5q0 29 16 54t45.5 41t70.5 16q43 0 74 -11t62 -44l-53 -46q-20 22 -39 30t-40 8q-24 0 -39 -14.5t-15 -30.5q0 -31 19.5 -47t51.5 -32
q38 -19 68.5 -38t48.5 -46.5t18 -70.5q0 -46 -27.5 -82t-78 -56t-118.5 -20z" />
    <glyph glyph-name="_vocRR_skt" unicode="&#x1057;" horiz-adv-x="373" 
d="M-29 140q-63 0 -97 35t-34 89l76 13q2 -33 17 -51.5t42 -18.5q26 0 41.5 16t15.5 45v9h85v-9q0 -26 15 -43.5t41 -17.5q32 0 50 20.5t18 49.5q0 38 -25.5 65.5t-62.5 45.5q-58 28 -88 61.5t-30 79.5q0 43 35.5 77t96.5 34q43 0 74 -11t62 -44l-53 -46q-20 22 -39 30
t-40 8q-24 0 -39 -14.5t-15 -30.5q0 -27 19 -44.5t57 -37.5q35 -18 64.5 -40t47.5 -53t18 -76q0 -64 -39.5 -102.5t-99.5 -38.5q-39 0 -64.5 11.5t-43.5 33.5q-38 -45 -105 -45z" />
    <glyph glyph-name="_vocL_skt" unicode="&#x1058;" 
d="M-326 -271q-64 0 -109.5 25t-70 67.5t-24.5 95.5t25 95.5t71 67.5t108 25q74 0 124 -36.5t67 -103.5q-47 -27 -78 -39t-53.5 -15t-45.5 -3q-37 0 -71 9t-63 29q-3 -15 -3 -32q0 -56 34.5 -91t90.5 -35q42 0 72 18t50 58l60 -27q-20 -49 -65 -78.5t-119 -29.5zM-325 49
q-36 0 -61.5 -13.5t-40.5 -36.5q23 -16 50.5 -25t62.5 -9q28 0 52.5 7t46.5 17q-37 60 -110 60z" />
    <glyph glyph-name="_vocLL_skt" unicode="&#x1059;" 
d="M-395 -271q-59 0 -97 46t-38 138q0 55 25 98t71 68.5t108 25.5q71 0 123 -36.5t68 -103.5q-47 -27 -78 -39t-53.5 -15t-45.5 -3q-36 0 -70.5 8.5t-63.5 29.5q-3 -18 -3 -38q0 -30 5.5 -57.5t18.5 -45t35 -17.5q15 0 25 12.5t10 33.5v6h71v-6q0 -46 39 -46q36 0 39 52
l62 -9q0 -49 -25 -75.5t-73 -26.5q-25 0 -44.5 7.5t-34.5 25.5q-25 -33 -74 -33zM-325 49q-37 0 -62 -13t-40 -37q22 -16 50 -25t63 -9q28 0 52.5 7t46.5 17q-37 60 -110 60z" />
    <glyph glyph-name="nga_mon" unicode="&#x105a;" horiz-adv-x="618" 
d="M326 140q-82 0 -143 33t-94.5 90t-33.5 128q0 73 33.5 129t94.5 88t143 32q86 0 151 -40.5t91 -105.5l-70 -33q-25 56 -70 84.5t-103 28.5q-82 0 -130.5 -50t-48.5 -132q0 -85 48 -135t131 -50q58 0 103 28t70 84l70 -32q-26 -66 -91 -106.5t-151 -40.5zM397 -271
q-53 0 -81 24.5t-28 59.5q0 29 17.5 54.5t54.5 56.5t37 65q0 25 -20 40.5t-48 15.5q-32 0 -51.5 -17.5t-24.5 -44.5h-80q1 53 43 88t111 35q66 0 108 -34.5t42 -85.5q0 -30 -16.5 -55t-54.5 -57q-38 -35 -38 -58q0 -16 13 -22.5t27 -6.5q17 0 33 8l32 -51q-15 -9 -36 -12
t-40 -3z" />
    <glyph glyph-name="jha_mon" unicode="&#x105b;" horiz-adv-x="869" 
d="M326 140q-82 0 -143 33t-94.5 90t-33.5 128q0 73 35.5 129.5t98.5 88t147 31.5q74 0 132 -17.5t91.5 -53t33.5 -88.5q0 -22 -2 -37.5t-2 -32.5q0 -29 17 -38.5t57 -9.5h25v268h89v-670q0 -232 -203 -232q-202 0 -202 233v182q-24 -4 -46 -4zM461 -46q0 -76 27.5 -118
t86.5 -42q58 0 85.5 42t27.5 118v344h-43q-61 0 -92.5 25t-31.5 71q-12 -7 -27.5 -9.5t-32.5 -2.5q-54 0 -90.5 30t-36.5 77q0 27 12 48t33 34q-24 3 -44 3q-85 0 -137 -50t-52 -132q0 -85 48 -135t131 -50q73 0 123 44l53 -54q-17 -15 -40 -26v-217zM460 441q23 0 39 14
t16 35t-16 35.5t-39 14.5t-39 -14.5t-16 -35.5t16 -35t39 -14z" />
    <glyph glyph-name="bba_mon" unicode="&#x105c;" horiz-adv-x="669" 
d="M334 140q-85 0 -147.5 32.5t-97 89t-34.5 128.5q0 71 34.5 127.5t98 89.5t149.5 33q85 0 148.5 -32.5t98.5 -89t35 -128.5q0 -73 -36.5 -129.5t-100.5 -88.5t-148 -32zM337 207q86 0 138.5 50t52.5 131q0 84 -51.5 135t-138.5 51q-88 0 -140 -50.5t-52 -135.5
q0 -55 24.5 -95.5t68 -63t98.5 -22.5zM336 299q-49 0 -79 25t-30 71q0 45 30 70t79 25q48 0 79.5 -25t31.5 -69q0 -46 -31.5 -71.5t-79.5 -25.5zM337 347q23 0 38 12.5t15 35.5q0 22 -15 34.5t-38 12.5t-38 -12.5t-15 -34.5q0 -48 53 -48z" />
    <glyph glyph-name="bbe_mon" unicode="&#x105d;" horiz-adv-x="659" 
d="M326 140q-76 0 -137.5 33t-97.5 91.5t-36 134.5q0 74 35 138.5t94 102.5l51 -57q-43 -31 -66 -76t-23 -106q0 -32 7 -60q30 24 75 42t97 18q48 0 93 -15t81 -44q6 28 6 59q0 61 -22.5 106t-65.5 76l50 57q59 -37 94.5 -102.5t35.5 -138.5q0 -69 -29 -125v-357
q0 -188 -205 -188h-97q-97 0 -149 34.5t-52 101.5q0 59 43.5 95t108.5 36q49 0 81 -15t63 -40l-55 -47q-17 15 -36 25t-48 10q-24 0 -45.5 -15t-21.5 -49q0 -35 30.5 -53t78.5 -18h104q57 0 84.5 29t27.5 81v276q-66 -40 -154 -40zM325 337q-44 0 -79.5 -16.5t-64.5 -41.5
q51 -72 145 -72q50 0 87.5 19t59.5 53q-27 27 -65.5 42.5t-82.5 15.5z" />
    <glyph glyph-name="_medialNa_mon" unicode="&#x105e;" 
d="M-416 -271q-68 0 -109.5 34.5t-41.5 89.5q0 65 57 102.5t158 40.5v117h88v-124q46 -8 88.5 -23t73.5 -34l-42 -54q-29 17 -59 29.5t-61 19.5v-56q0 -70 -40 -106t-112 -36zM-480 -151q0 -30 20.5 -44.5t43.5 -14.5q64 0 64 72v73q-62 -3 -95 -25t-33 -61z" />
    <glyph glyph-name="_medialMa_mon" unicode="&#x105f;" 
d="M-329 -271q-105 0 -161.5 35.5t-56.5 100.5q0 61 52.5 96t142.5 35v117h88v-185q-16 2 -36.5 3.5t-40.5 1.5q-119 0 -119 -72q0 -71 139 -71q49 0 98 13.5t99 43.5l42 -54q-52 -29 -116 -46.5t-131 -17.5z" />
    <glyph glyph-name="_medialLa_mon" unicode="&#x1060;" 
d="M-528 -271l234 376h86l-196 -315h276v-61h-400z" />
    <glyph glyph-name="sha_skn" unicode="&#x1061;" horiz-adv-x="689" 
d="M225 -271v61h125v351q-14 -1 -27 -1q-81 0 -141.5 32.5t-93.5 89t-33 129.5t34 129t95 88t143 32q83 0 143.5 -33t94 -89t33.5 -127v-662h-89v659q0 55 -23 97t-63.5 66t-94.5 24q-66 0 -111.5 -32t-61.5 -92q90 -7 153.5 -45t96.5 -100.5t33 -143.5v0v-433h-213z
M327 207h11.5t10.5 1q-3 79 -58.5 125.5t-143.5 53.5q1 -82 47.5 -131t132.5 -49z" />
    <glyph glyph-name="eu_skn" unicode="&#x1062;" horiz-adv-x="336" 
d="M157 149v421h-126v61h214v-482h-88z" />
    <glyph glyph-name="hathi_skn" unicode="&#x1063;" horiz-adv-x="661" 
d="M92 -271v558l70 32q25 -56 69.5 -84t103.5 -28q83 0 131 49.5t48 135.5q0 82 -49 132t-130 50q-59 0 -103.5 -28.5t-69.5 -84.5l-70 33q27 68 92 107t150 39q82 0 143 -32t94.5 -88t33.5 -129q0 -71 -33.5 -128t-94.5 -90t-143 -33q-51 0 -87.5 11.5t-66.5 35.5v-458h-88
z" />
    <glyph glyph-name="kepho_skn" unicode="&#x1064;" horiz-adv-x="401" 
d="M157 149v421h-126v61h214v-421h125v-61h-213z" />
    <glyph glyph-name="tha_wpk" unicode="&#x1065;" horiz-adv-x="667" 
d="M331 140q-90 0 -159 40.5t-95 106.5l69 32q27 -56 76 -84t111 -28q57 0 100.5 24t68 66t24.5 95q0 81 -52 131.5t-141 50.5q-62 0 -111 -28.5t-76 -84.5l-69 33q26 65 95 105.5t159 40.5q85 0 149.5 -32t100.5 -88t36 -129q0 -76 -35.5 -132.5t-99.5 -87.5t-151 -31z" />
    <glyph glyph-name="pwa_wpk" unicode="&#x1066;" horiz-adv-x="653" 
d="M159 -271v61h126v353q-68 9 -119.5 43.5t-81 89t-29.5 123.5q0 74 35 138.5t94 102.5l51 -57q-43 -31 -66 -76t-23 -106q0 -90 50 -142t132 -52q80 0 129 52.5t49 141.5q0 61 -22.5 106t-65.5 76l50 57q59 -37 94.5 -102.5t35.5 -138.5q0 -69 -29 -123.5t-79.5 -89
t-116.5 -43.5v-414h-214z" />
    <glyph glyph-name="eu_wpk" unicode="&#x1067;" horiz-adv-x="434" 
d="M194 139q-67 0 -107 33.5t-40 94.5t41 94.5t106 33.5q22 0 40 -5t32 -13v254h77v-364q0 -61 -40.5 -94.5t-108.5 -33.5zM194 203q34 0 53 17t19 47t-20 47t-52 17q-30 0 -50 -17t-20 -47t18.5 -47t51.5 -17z" />
    <glyph glyph-name="ue_wpk" unicode="&#x1068;" horiz-adv-x="336" 
d="M190 735q-49 0 -79 25t-30 71q0 45 30 70t79 25q48 0 80 -25t32 -70q0 -46 -31.5 -71t-80.5 -25zM191 783q24 0 39 13t15 35q0 23 -15.5 35t-38.5 12t-38 -12t-15 -35q0 -22 14 -35t39 -13zM31 149v61h126v421h88v-482h-214z" />
    <glyph glyph-name="tone1_wpk" unicode="&#x1069;" horiz-adv-x="423" 
d="M206 137q-66 0 -109.5 35.5t-43.5 90.5q0 35 12.5 61t44 49t88.5 51t73.5 51t16.5 45q0 23 -22 40.5t-53 17.5q-25 0 -50 -9.5t-50 -36.5l-52 46q35 38 72.5 50t83.5 12q71 0 112 -36.5t41 -86.5q0 -39 -13.5 -64.5t-45 -48t-85.5 -49.5q-44 -23 -67.5 -44t-23.5 -49
q0 -27 22 -44t52 -17q27 0 51 9.5t50 35.5l52 -46q-34 -36 -70 -49.5t-86 -13.5z" />
    <glyph glyph-name="tone2_wpk" unicode="&#x106a;" horiz-adv-x="434" 
d="M193 139q-66 0 -106 33.5t-40 94.5h77q0 -30 18.5 -47t52.5 -17q32 0 51.5 18.5t19.5 62.5v347h77v-351q0 -69 -39.5 -105t-110.5 -36z" />
    <glyph glyph-name="tone3_wpk" unicode="&#x106b;" horiz-adv-x="434" 
d="M266 149v347q0 43 -19.5 62t-51.5 19q-34 0 -52.5 -17.5t-18.5 -46.5h-77q0 61 40 94t106 33q71 0 110.5 -35.5t39.5 -103.5v-352h-77z" />
    <glyph glyph-name="tone4_wpk" unicode="&#x106c;" horiz-adv-x="434" 
d="M241 139q-71 0 -110.5 36.5t-39.5 104.5v351h77v-347q0 -44 19.5 -62.5t51.5 -18.5q35 0 53.5 17t18.5 47h76q0 -61 -40 -94.5t-106 -33.5z" />
    <glyph glyph-name="tone5_wpk" unicode="&#x106d;" horiz-adv-x="423" 
d="M217 137q-49 0 -85 13.5t-71 49.5l52 46q26 -26 50 -35.5t51 -9.5q30 0 52 17t22 44q0 28 -24 49t-67 44q-53 27 -85 49.5t-45.5 48t-13.5 64.5q0 50 41.5 86.5t111.5 36.5q46 0 84 -12t72 -50l-52 -46q-25 27 -50 36.5t-50 9.5q-31 0 -53 -17.5t-22 -40.5
q0 -22 16.5 -45t73.5 -51t88.5 -51t44 -49t12.5 -61q0 -55 -43.5 -90.5t-109.5 -35.5z" />
    <glyph glyph-name="nna_epk" unicode="&#x106e;" horiz-adv-x="1253" 
d="M184 140q-36 22 -65.5 59t-46.5 84t-17 98q0 78 32.5 136t88.5 90.5t125 32.5q34 0 64.5 -8t56.5 -23q53 31 125 31q67 0 118.5 -29.5t83.5 -76.5q72 106 205 106q77 0 131.5 -33.5t83.5 -90t29 -125.5q0 -75 -29 -131.5t-81 -88t-119 -31.5q-41 0 -70 5t-55 18l32 60
q32 -16 78 -16q69 0 111 48.5t42 132.5q0 83 -42 134.5t-113 51.5q-56 0 -95 -32t-71 -88q10 -36 10 -73q0 -86 -34.5 -146t-86.5 -95l-52 58q40 32 60.5 76.5t20.5 104.5q0 95 -44 145t-115 50q-31 0 -64 -13q31 -35 48 -81t17 -99q0 -49 -16.5 -95.5t-45.5 -84t-67 -61.5
l-52 58q43 32 66 76.5t23 104.5q0 95 -43 145.5t-110 50.5q-68 0 -111.5 -51.5t-43.5 -144.5q0 -60 23 -104.5t66 -76.5z" />
    <glyph glyph-name="ywa_epk" unicode="&#x106f;" horiz-adv-x="1102" 
d="M326 140q-78 0 -139.5 33t-96.5 91t-35 135q0 74 35 138.5t94 102.5l51 -57q-43 -31 -66 -76t-23 -106q0 -91 50 -142.5t130 -51.5q81 0 130.5 52t49.5 142q0 61 -23 106t-66 76l51 57q58 -36 91 -95q37 46 94 70.5t123 24.5q83 0 144 -32.5t94 -89t33 -128.5
q0 -99 -52.5 -163t-141.5 -81v-417h-214v61h126v351q-65 3 -110 22l32 60q36 -16 92 -16q80 0 128.5 49.5t48.5 131.5t-48 133.5t-131 51.5q-62 0 -107 -29.5t-80 -84.5q7 -34 7 -71q0 -67 -34.5 -123.5t-95.5 -90.5t-141 -34z" />
    <glyph glyph-name="ghwa_epk" unicode="&#x1070;" horiz-adv-x="1104" 
d="M320 140q-77 0 -135 24t-90 66.5t-32 98.5q0 47 22.5 85t64.5 66q24 16 37 30t13 32q0 13 -10 22.5t-27 9.5q-15 0 -29 -7.5t-31 -25.5l-50 45q30 29 54.5 41.5t62.5 12.5q37 0 63 -14t39.5 -35.5t13.5 -43.5q0 -21 -4.5 -36.5t-18 -31t-41.5 -37.5q-41 -33 -55 -58.5
t-14 -54.5q0 -53 45 -87.5t129 -34.5q52 0 92.5 23.5t64 66.5t23.5 104t-23 106t-66 76l51 57q61 -38 95 -104t34 -137q0 -38 -9 -73q35 -57 84.5 -88t108.5 -31q82 0 128.5 50.5t46.5 134.5t-50 133t-132 49q-25 0 -46.5 -4t-39.5 -12l-32 59q27 13 58 18t74 5
q75 0 133.5 -31t92 -87t33.5 -132q0 -62 -25.5 -114t-74 -86.5t-117.5 -45.5v-415h-214v61h126v351q-57 6 -106.5 32.5t-83.5 72.5q-36 -51 -96 -78.5t-137 -27.5z" />
    <glyph glyph-name="i_gkn" unicode="&#x1071;" 
d="M-171 766q-49 0 -79 24.5t-30 70.5q0 43 30 68.5t79 25.5q48 0 79.5 -25t31.5 -68q0 -46 -31 -71t-80 -25zM-460 766q-49 0 -79.5 24.5t-30.5 70.5q0 43 30.5 68.5t79.5 25.5q48 0 79.5 -25t31.5 -68q0 -46 -31.5 -71t-79.5 -25zM-170 812q23 0 38 13t15 36t-15 35
t-38 12t-38 -12t-15 -35t13.5 -36t39.5 -13zM-459 812q23 0 38 13t15 36t-15 35t-38 12t-38.5 -12t-15.5 -35t14 -36t40 -13z" />
    <glyph glyph-name="oe_kyh" unicode="&#x1072;" 
d="M-304 712q-56 0 -97 22.5t-63.5 61t-22.5 86.5q0 47 23 85.5t64.5 61t97.5 22.5q58 0 101.5 -25.5t63.5 -71.5l-64 -30q-13 34 -41 50.5t-62 16.5q-48 0 -75.5 -30.5t-27.5 -77.5q0 -48 26 -79t74 -31q36 0 64.5 15.5t43.5 49.5l65 -27q-21 -47 -67 -73t-103 -26z" />
    <glyph glyph-name="u_kyh" unicode="&#x1073;" 
d="M-527 712l-49 51l274 240l274 -240l-50 -51l-224 197z" />
    <glyph glyph-name="ee_kyh" unicode="&#x1074;" 
d="M-302 712l-274 241l49 50l225 -196l224 196l50 -50z" />
    <glyph glyph-name="ka_shn" unicode="&#x1075;" horiz-adv-x="667" 
d="M175 140q-39 0 -64 12.5t-56 41.5l50 46q33 -33 65 -33q18 0 28 9t10 22q0 24 -31 46q-53 38 -82.5 74.5t-29.5 92.5t32 98.5t92 66.5t143 24q77 0 141 -32t102.5 -90t38.5 -137q0 -49 -17.5 -96t-47.5 -85t-68 -60l-52 58q46 32 69.5 76.5t23.5 104.5q0 91 -52 143.5
t-135 52.5q-89 0 -134.5 -35t-45.5 -89q0 -29 15.5 -55.5t55.5 -55.5q42 -31 55 -52.5t13 -53.5q0 -22 -14 -43.5t-40.5 -36t-64.5 -14.5z" />
    <glyph glyph-name="kha_shn" unicode="&#x1076;" horiz-adv-x="672" 
d="M322 140q-98 0 -172.5 44.5t-102.5 129.5q70 41 132 59.5t128 18.5q67 0 121 -17.5t95 -44.5q8 28 8 63q0 89 -37 134t-96 45q-55 0 -94 -46q-38 -45 -67 -64.5t-75 -19.5q-28 0 -54 11t-43.5 32.5t-17.5 50.5q0 34 14 56.5t46 48.5l51 -45q-19 -14 -28 -24t-9 -23
t14 -21t32 -8q31 0 68 44t73.5 60t83.5 16q67 0 118.5 -30.5t81 -84t29.5 -122.5q0 -78 -35.5 -137.5t-102.5 -92.5t-161 -33zM143 288q31 -40 78 -60.5t105 -20.5q114 0 166 63q-33 24 -79.5 39.5t-109.5 15.5q-44 0 -85 -10.5t-75 -26.5z" />
    <glyph glyph-name="ga_shn" unicode="&#x1077;" horiz-adv-x="674" 
d="M172 140q-39 0 -64 12.5t-56 41.5l50 46q33 -33 64 -33q18 0 29 9.5t11 22.5q0 24 -32 45q-54 38 -83 73.5t-29 93.5q0 57 32.5 99.5t92.5 66t143 23.5q80 0 144.5 -32.5t101.5 -91t37 -135.5q0 -51 -19 -97t-51.5 -83t-75.5 -59q-70 40 -105 97.5t-35 134.5q0 62 23 109
t58 79q-35 13 -75 13q-89 0 -135.5 -35t-46.5 -89q0 -29 14.5 -54t57.5 -56q43 -32 56 -54.5t13 -51.5q0 -35 -31 -65t-89 -30zM407 374q0 -48 14 -80t48 -61q29 29 46 65.5t17 80.5q0 45 -16.5 82.5t-45.5 63.5q-31 -28 -47 -68t-16 -83z" />
    <glyph glyph-name="ca_shn" unicode="&#x1078;" horiz-adv-x="1125" 
d="M800 140q80 0 140.5 32.5t94.5 89t34 128.5q0 71 -34 127.5t-95.5 89.5t-142.5 33q-79 0 -138.5 -28t-94.5 -76q-39 52 -99.5 78t-132.5 26q-85 0 -147 -33t-96 -89.5t-34 -127.5q0 -76 33.5 -132t91.5 -87t134 -31q46 0 79 5t62 18l-32 60q-38 -16 -95 -16
q-82 0 -132 49t-50 132q0 84 49.5 135t134.5 51q57 0 109 -30.5t87 -85.5q-9 -34 -9 -71q0 -73 35 -128.5t98.5 -87t149.5 -31.5zM797 207q-89 0 -138.5 49.5t-49.5 128.5q0 84 48.5 136.5t138.5 52.5q54 0 95 -23t64 -65t23 -98q0 -55 -24 -95.5t-65 -63t-92 -22.5z" />
    <glyph glyph-name="za_shn" unicode="&#x1079;" horiz-adv-x="1126" 
d="M323 140q-81 0 -141.5 33t-93.5 89.5t-33 127.5q0 72 37 128.5t102.5 89t151.5 32.5q75 0 130 -29t91 -76q35 48 93.5 76.5t137.5 28.5q82 0 143.5 -33t96 -90t34.5 -127q0 -73 -36 -129.5t-98.5 -88.5t-142.5 -32q-85 0 -145.5 32.5t-93.5 89t-33 128.5q0 34 8 66
q-32 52 -78 84.5t-103 32.5q-75 0 -125.5 -32t-68.5 -90q129 -11 202.5 -87.5t73.5 -206.5q-23 -7 -51 -12t-58 -5zM798 207q54 0 95 22.5t64 63.5t23 95q0 83 -49.5 134.5t-131.5 51.5q-87 0 -136 -50.5t-49 -135.5q0 -82 51 -131.5t133 -49.5zM332 207h8.5h8.5
q-5 81 -59 126.5t-143 53.5q0 -80 46.5 -130t138.5 -50z" />
    <glyph glyph-name="nya_shn" unicode="&#x107a;" horiz-adv-x="1104" 
d="M315 140q-78 0 -136.5 32t-91 89t-32.5 130t33.5 129t94.5 88t144 32q82 0 143 -31t94.5 -86.5t33.5 -127.5q0 -86 49 -137t135 -51q80 0 128 51t48 135q0 53 -21.5 94t-61 64.5t-93.5 23.5q-25 0 -43 -3.5t-33 -7.5l-31 60q25 10 50 13t66 3q77 0 135.5 -34t90.5 -91
t32 -124q0 -73 -33.5 -129.5t-94.5 -89t-142 -32.5q-56 0 -101.5 16.5t-79.5 44.5v-411h125v-61h-213v659q0 88 -47 137.5t-135 49.5q-82 0 -132 -49.5t-50 -137.5q0 -81 48 -131t128 -50q14 0 29 2t28 7l30 -62q-19 -4 -42 -9t-52 -5z" />
    <glyph glyph-name="da_shn" unicode="&#x107b;" horiz-adv-x="1126" 
d="M332 140q-80 0 -142.5 32t-98.5 88.5t-36 129.5q0 70 34.5 127t96 90t143.5 33q79 0 137.5 -28.5t93.5 -76.5q36 47 91 76t130 29q85 0 151 -32.5t103 -89t37 -128.5q0 -71 -33 -127.5t-93 -89.5t-142 -33q-30 0 -58 5t-51 12q0 130 73.5 206.5t202.5 87.5
q-18 58 -68.5 90t-125.5 32q-57 0 -103 -32.5t-78 -84.5q8 -32 8 -66q0 -72 -33 -128.5t-94 -89t-145 -32.5zM329 207q83 0 133.5 49.5t50.5 131.5q0 85 -49 135.5t-136 50.5q-82 0 -131.5 -51.5t-49.5 -134.5q0 -54 23 -95t64.5 -63.5t94.5 -22.5zM795 207q92 0 138.5 50
t46.5 130q-89 -8 -143 -53.5t-59 -126.5h8.5h8.5z" />
    <glyph glyph-name="na_shn" unicode="&#x107c;" horiz-adv-x="1129" 
d="M309 140q-59 0 -111.5 21t-91 60t-54.5 92q46 27 92.5 44.5t109 25.5t156.5 8h98q0 83 -51.5 133t-145.5 50q-54 0 -103.5 -28.5t-77.5 -84.5l-70 33q18 44 56 76.5t88 51t105 18.5q86 0 148.5 -31.5t96.5 -84.5q34 53 98 84.5t152 31.5q55 0 105 -18.5t87.5 -51
t56.5 -76.5l-70 -33q-28 56 -77.5 84.5t-103.5 28.5q-97 0 -150.5 -50t-53.5 -133h82q79 0 136 -4.5t99 -14t76.5 -24t69.5 -35.5q-15 -53 -54 -92t-92 -60t-111 -21q-89 0 -152.5 31.5t-97.5 84.5q-34 -53 -96 -84.5t-149 -31.5zM147 288q30 -40 74.5 -60.5t90.5 -20.5
q83 0 127 34.5t59 83.5h-91q-81 0 -129.5 -5t-78 -13.5t-52.5 -18.5zM683 325h-75q16 -49 61.5 -83.5t131.5 -34.5q46 0 90.5 20.5t74.5 60.5q-22 10 -53 18.5t-84.5 13.5t-145.5 5z" />
    <glyph glyph-name="pha_shn" unicode="&#x107d;" horiz-adv-x="1128" 
d="M324 140q-79 0 -137.5 24t-91 66.5t-32.5 98.5q0 47 22.5 84t66.5 65q26 16 41 31t15 33q0 13 -12 22.5t-33 9.5q-15 0 -29 -7.5t-31 -25.5l-50 45q30 29 54.5 41.5t62.5 12.5q40 0 67.5 -14t42 -35.5t14.5 -43.5q0 -21 -5 -37t-20.5 -32t-46.5 -38q-41 -32 -55 -57
t-14 -54q0 -53 45.5 -87.5t132.5 -34.5q86 0 138 51.5t52 142.5q0 61 -24 106t-68 76l51 57q32 -20 55.5 -47.5t39.5 -60.5q34 49 92 78.5t130 29.5q95 0 161 -40.5t94 -105.5l-70 -33q-56 113 -187 113q-51 0 -92 -22.5t-65 -63t-24 -94.5q0 -24 5 -47q37 20 83.5 32
t100.5 12q65 0 126.5 -18.5t130.5 -59.5q-23 -79 -93 -126t-170 -47q-76 0 -136 33t-93 88q-33 -55 -94.5 -88t-149.5 -33zM806 325q-51 0 -91 -11t-71 -29q21 -34 58.5 -56t91.5 -22q58 0 99.5 20.5t71.5 60.5q-34 15 -74 26t-85 11z" />
    <glyph glyph-name="fa_shn" unicode="&#x107e;" horiz-adv-x="1099" 
d="M308 140q-74 0 -129 24t-85.5 66.5t-30.5 98.5q0 92 86 149q24 16 38 31t14 33q0 13 -10 22.5t-28 9.5q-15 0 -29 -7.5t-31 -25.5l-50 45q30 29 54.5 41.5t62.5 12.5t64 -14t39.5 -35.5t13.5 -43.5q0 -31 -12.5 -53t-54.5 -54q-41 -32 -54 -57t-13 -54q0 -53 41.5 -87.5
t120.5 -34.5q86 0 138 51.5t52 142.5q0 61 -24 106t-68 76l51 57q32 -20 55.5 -47.5t39.5 -60.5q34 49 92 78.5t130 29.5q89 0 151.5 -40.5t88.5 -105.5l-70 -33q-51 113 -172 113q-51 0 -92 -22.5t-65 -63t-24 -94.5q0 -24 5 -47q37 20 83.5 32t100.5 12q61 0 119 -18.5
t123 -59.5q-19 -70 -72.5 -114.5t-130.5 -55.5v-414h-213v61h125v353q-61 9 -109 40t-77 78q-33 -55 -94.5 -88t-149.5 -33zM790 325q-51 0 -91 -11t-71 -29q21 -34 58.5 -56t91.5 -22q102 0 156 81q-31 15 -67.5 26t-76.5 11z" />
    <glyph glyph-name="ba_shn" unicode="&#x107f;" horiz-adv-x="677" 
d="M339 140q-81 0 -145.5 33t-101.5 91t-37 135q0 73 39.5 138.5t108.5 102.5q141 -81 141 -232q0 -62 -22.5 -108.5t-56.5 -80.5q35 -12 74 -12q88 0 139.5 53t51.5 141q0 61 -25 106t-71 76l51 57q61 -36 99 -102t38 -139q0 -77 -37 -135t-101 -91t-145 -33zM136 401
q0 -45 17 -82t47 -63q33 30 48 68.5t15 83.5q0 46 -13.5 79t-48.5 61q-28 -28 -46.5 -64.5t-18.5 -82.5z" />
    <glyph glyph-name="tha_shn" unicode="&#x1080;" horiz-adv-x="1124" 
d="M318 140q-66 0 -122.5 21t-96 60t-54.5 92q69 41 130.5 59.5t126.5 18.5q59 0 108.5 -10.5t89.5 -28.5q4 21 4 44q0 54 -25 94t-68.5 62t-100.5 22q-60 0 -109.5 -28.5t-77.5 -84.5l-70 33q19 44 57 76.5t89 51t109 18.5q92 0 156 -32t97.5 -87.5t33.5 -125.5
q0 -38 -11 -73q26 -31 54.5 -57t64 -41.5t83.5 -15.5q90 0 142.5 51t52.5 133t-52 132t-139 50q-30 0 -55 -4t-45 -12l-32 59q29 13 64 18t82 5q78 0 138.5 -31t95 -87t34.5 -132q0 -74 -37 -130t-102 -88t-150 -32q-75 0 -133 27.5t-104 79.5q-36 -49 -95 -78t-133 -29z
M140 288q30 -40 76.5 -60.5t104.5 -20.5q57 0 95 23t59 59q-33 16 -76 26t-100 10q-45 0 -85 -11t-74 -26z" />
    <glyph glyph-name="ha_shn" unicode="&#x1081;" horiz-adv-x="653" 
d="M184 140q-36 22 -65.5 59t-46.5 84t-17 98q0 77 36 135.5t97.5 91t138.5 32.5q76 0 137.5 -32.5t97.5 -91t36 -135.5q0 -49 -16.5 -95.5t-45.5 -84t-67 -61.5l-52 58q89 63 89 181q0 95 -50 145.5t-129 50.5t-130 -51.5t-51 -144.5q0 -60 23 -104.5t66 -76.5zM166 -271
v61h125v323h88v-384h-213z" />
    <glyph glyph-name="medial_wa_shn" unicode="&#x1082;" 
d="M-235 -271q-57 0 -103.5 21.5t-73.5 61.5t-27 94q0 70 36.5 121.5t92.5 77.5l49 -53q-41 -26 -69.5 -60.5t-28.5 -87.5q0 -49 34.5 -81.5t90.5 -32.5q35 0 65 16t48 44l57 -39q-54 -82 -171 -82z" />
    <glyph glyph-name="aa_shn" unicode="&#x1083;" horiz-adv-x="336" 
d="M157 -271v841h-126v61h214v-841h126v-61h-214z" />
    <glyph glyph-name="e_shn" unicode="&#x1084;" horiz-adv-x="592" 
d="M307 140q-126 0 -192 37t-66 103q0 47 31.5 78.5t87.5 44.5v5q-100 26 -100 105q0 60 59.5 93.5t170.5 33.5q184 0 242 -102l-67 -33q-23 41 -64.5 56.5t-101.5 15.5q-150 0 -150 -74q0 -28 27.5 -49t81.5 -21h5v-65h-13q-62 0 -91.5 -23.5t-29.5 -53.5q0 -41 39.5 -63.5
t130.5 -22.5q60 0 109 24t72 78l70 -31q-26 -64 -90 -100t-161 -36z" />
    <glyph glyph-name="_e_above_shn" unicode="&#x1085;" 
d="M-306 712q-94 0 -134 28t-40 73q0 32 24 51.5t56 26.5v3q-26 7 -47 22.5t-21 47.5q0 36 37 62t120 26q125 0 163 -70l-58 -31q-14 23 -39.5 32.5t-63.5 9.5q-35 0 -56.5 -8t-21.5 -30q0 -19 21.5 -27.5t54.5 -8.5h4v-59h-18q-34 0 -54.5 -12t-20.5 -33q0 -25 24.5 -35
t65.5 -10q39 0 68.5 14.5t45.5 46.5l60 -27q-18 -48 -65 -70t-105 -22z" />
    <glyph glyph-name="_f_above_shn" unicode="&#x1086;" 
d="M-341 712l95 111h-6q-58 0 -94.5 29.5t-36.5 85.5q0 53 36.5 83.5t92.5 30.5q58 0 96 -30.5t38 -82.5q0 -28 -8 -57t-36 -63l-89 -107h-88zM-250 879q29 0 46 18t17 40q0 27 -17.5 42t-45.5 15q-64 0 -64 -57q0 -28 17.5 -43t46.5 -15z" />
    <glyph glyph-name="tone2_shn" unicode="&#x1087;" horiz-adv-x="347" 
d="M99 12l79 127h-5q-49 0 -79.5 24.5t-30.5 71.5t31.5 71.5t76.5 24.5q49 0 81 -26.5t32 -69.5q0 -38 -40 -103l-72 -120h-73zM174 186q26 0 40 15t14 34q0 22 -14.5 34t-39.5 12t-39 -12t-14 -34q0 -24 14.5 -36.5t38.5 -12.5z" />
    <glyph glyph-name="tone3_shn" unicode="&#x1088;" horiz-adv-x="346" 
d="M172 442q-49 0 -79 24.5t-30 70.5q0 45 30 70t79 25q48 0 79.5 -25t31.5 -69q0 -47 -31.5 -71.5t-79.5 -24.5zM173 488q24 0 38.5 12.5t14.5 36.5q0 22 -15 34.5t-38 12.5t-38 -12.5t-15 -34.5q0 -49 53 -49zM99 12l79 127h-5q-49 0 -79.5 24.5t-30.5 71.5t31.5 71.5
t76.5 24.5q49 0 81 -26.5t32 -69.5q0 -38 -40 -103l-72 -120h-73zM174 186q26 0 40 15t14 34q0 22 -14.5 34t-39.5 12t-39 -12t-14 -34q0 -24 14.5 -36.5t38.5 -12.5z" />
    <glyph glyph-name="tone5_shn" unicode="&#x1089;" horiz-adv-x="346" 
d="M172 139q-49 0 -79 24.5t-30 71.5q0 45 30 70t79 25q48 0 79.5 -25.5t31.5 -69.5q0 -46 -31.5 -71t-79.5 -25zM173 187q24 0 38.5 12.5t14.5 35.5q0 22 -15 34.5t-38 12.5t-38 -12.5t-15 -34.5q0 -48 53 -48z" />
    <glyph glyph-name="tone6_shn" unicode="&#x108a;" horiz-adv-x="434" 
d="M172 451q-49 0 -79 25t-30 71q0 45 30 70t79 25q48 0 79.5 -24.5t31.5 -67.5v-4l141 72v-66l-133 -65q-75 -36 -119 -36zM173 499q24 0 38.5 12.5t14.5 35.5t-15 35.5t-38 12.5t-38 -12.5t-15 -35.5q0 -48 53 -48zM172 150q-49 0 -79 24.5t-30 70.5t30 71t79 25
q48 0 79.5 -24.5t31.5 -68.5v-4l141 72v-65l-133 -65q-75 -36 -119 -36zM173 198q24 0 38.5 12.5t14.5 34.5q0 23 -15 35.5t-38 12.5t-38 -12.5t-15 -35.5q0 -22 13.5 -34.5t39.5 -12.5z" />
    <glyph glyph-name="ctone2_shn" unicode="&#x108b;" horiz-adv-x="346" 
d="M172 290q-49 0 -79 25t-30 71q0 45 30 70t79 25q48 0 79.5 -25.5t31.5 -68.5q0 -47 -31.5 -72t-79.5 -25zM173 338q24 0 38.5 12.5t14.5 35.5q0 22 -15 34.5t-38 12.5t-38 -12.5t-15 -34.5q0 -48 53 -48z" />
    <glyph glyph-name="ctone3_shn" unicode="&#x108c;" horiz-adv-x="654" 
d="M480 290q-49 0 -79 25t-30 71q0 45 30 70t79 25q48 0 79.5 -25.5t31.5 -68.5q0 -47 -31.5 -72t-79.5 -25zM172 290q-49 0 -79 25t-30 71q0 45 30 70t79 25q48 0 79.5 -25.5t31.5 -68.5q0 -47 -31.5 -72t-79.5 -25zM173 338q24 0 38.5 12.5t14.5 35.5q0 22 -15 34.5
t-38 12.5t-38 -12.5t-15 -34.5q0 -48 53 -48zM481 338q23 0 38 12.5t15 35.5q0 22 -15 34.5t-38 12.5t-38 -12.5t-15 -34.5q0 -48 53 -48z" />
    <glyph glyph-name="etone_shn" unicode="&#x108d;" 
d="M-572 -9v62h473v-62h-473z" />
    <glyph glyph-name="fa_rpg" unicode="&#x108e;" horiz-adv-x="673" 
d="M337 140q-87 0 -150.5 33t-97.5 90t-34 128q0 73 35 129t97.5 88t145.5 32q86 0 150 -32t99.5 -88t35.5 -129t-35.5 -130t-99 -89t-146.5 -32zM337 575q-54 0 -94.5 -18.5t-64.5 -51.5q34 -29 75 -45t86 -16t84 15.5t71 42.5q-23 35 -63.5 54t-93.5 19zM338 207
q87 0 137.5 52t50.5 134q0 24 -5 46q-36 -26 -81.5 -43t-100.5 -17q-60 0 -106 18t-82 45q-5 -23 -5 -49q0 -85 52 -135.5t140 -50.5z" />
    <glyph glyph-name="tone5_rpg" unicode="&#x108f;" horiz-adv-x="346" 
d="M175 442q-48 0 -80 24.5t-32 71.5q0 44 32 69t80 25q49 0 79 -25t30 -70q0 -46 -30 -70.5t-79 -24.5zM174 488q53 0 53 49q0 22 -15 34.5t-38 12.5t-38 -12.5t-15 -34.5q0 -24 15 -36.5t38 -12.5zM248 12h-73l-72 120q-40 65 -40 103q0 43 31.5 69.5t81.5 26.5
q45 0 76.5 -24.5t31.5 -71.5t-30.5 -71.5t-79.5 -24.5h-5zM173 186q24 0 38.5 12.5t14.5 36.5q0 22 -14 34t-39 12t-39.5 -12t-14.5 -34q0 -19 14.5 -34t39.5 -15z" />
    <glyph glyph-name="zero_shn" unicode="&#x1090;" horiz-adv-x="761" 
d="M383 -271q-136 0 -214 67.5t-78 204.5v377q0 120 75.5 191t214.5 71q137 0 213 -70t76 -192v-386q0 -120 -75 -191.5t-212 -71.5zM381 -207q97 0 150.5 53t53.5 150v378q0 96 -53 150t-151 54q-101 0 -153 -55t-52 -149v-373q0 -109 55 -158.5t150 -49.5z" />
    <glyph glyph-name="one_shn" unicode="&#x1091;" horiz-adv-x="646" 
d="M285 -271v790l-195 -92l-33 53l317 153v-791l181 93l34 -53z" />
    <glyph glyph-name="two_shn" unicode="&#x1092;" horiz-adv-x="678" 
d="M103 -271q-6 21 -9 39t-3 43q0 67 30.5 120t85 103t125.5 108q72 59 117 103.5t66.5 84.5t21.5 86q0 72 -47.5 117t-136.5 45q-53 0 -95 -22t-66.5 -61t-24.5 -88v-25h-76v250h76v-70q29 34 76 56t123 22q77 0 134.5 -27.5t89.5 -77t32 -116.5q0 -48 -20.5 -94.5
t-69 -98.5t-132.5 -119t-133 -116.5t-69.5 -91t-20.5 -83.5q0 -32 3.5 -53t9.5 -34h-87z" />
    <glyph glyph-name="three_shn" unicode="&#x1093;" horiz-adv-x="720" 
d="M17 -271l399 902h94l-191 -432q14 5 31.5 7.5t44.5 2.5q137 0 206 -67t69 -196v-217h-85v213q0 203 -204 203q-27 0 -49.5 -4.5t-42.5 -12.5l-178 -399h-94z" />
    <glyph glyph-name="four_shn" unicode="&#x1094;" horiz-adv-x="734" 
d="M421 -271v512q0 35 1 78.5t2.5 83t4.5 62.5h-4q-13 -36 -24.5 -72.5t-27.5 -71.5l-262 -583h-94l399 893h94v-789l181 93l34 -53z" />
    <glyph glyph-name="five_shn" unicode="&#x1095;" horiz-adv-x="718" 
d="M324 -271q-81 0 -141.5 33.5t-93.5 92.5t-33 133q0 79 42 135t115 86t166 30h131v392h89v-392h112v-66h-112v-165q0 -84 -33 -147t-94.5 -97.5t-147.5 -34.5zM327 -205q84 0 133.5 56.5t49.5 159.5v162h-114q-123 0 -186.5 -51t-63.5 -136q0 -86 49 -138.5t132 -52.5z
" />
    <glyph glyph-name="six_shn" unicode="&#x1096;" horiz-adv-x="718" 
d="M510 -271v420h-142q-100 0 -169.5 30.5t-106 85t-36.5 126.5q0 71 33 127.5t93.5 89t141.5 32.5q86 0 147.5 -34.5t94.5 -97t33 -147.5v-146h112v-66h-112v-420h-89zM374 215h136v143q0 103 -49 160t-134 57q-83 0 -132 -50t-49 -132q0 -178 228 -178z" />
    <glyph glyph-name="seven_shn" unicode="&#x1097;" horiz-adv-x="555" 
d="M31 -271l370 837h-349v65h472l-370 -838h357v-64h-480z" />
    <glyph glyph-name="eight_shn" unicode="&#x1098;" horiz-adv-x="653" 
d="M329 -271q-79 0 -140 31t-95 86t-34 127q0 67 33.5 126t95.5 90q-59 30 -94 84.5t-35 133.5q0 67 32 130t92 103l51 -57q-43 -30 -66 -73t-23 -103q0 -87 50.5 -137t130.5 -50q79 0 129 49t50 138q0 60 -22.5 103t-66.5 73l52 57q59 -40 91 -103.5t32 -129.5
q0 -79 -36 -133.5t-94 -84.5q60 -30 95 -87.5t35 -128.5q0 -67 -32 -122t-91 -88.5t-140 -33.5zM327 -205q81 0 130 49.5t49 128.5t-47 130t-131 51q-86 0 -134 -50.5t-48 -130.5q0 -81 50 -129.5t131 -48.5z" />
    <glyph glyph-name="nine_shn" unicode="&#x1099;" horiz-adv-x="653" 
d="M184 -271q-57 36 -90.5 99.5t-33.5 134.5q0 78 35 133t94 85q-61 31 -95 89.5t-34 125.5q0 71 33.5 126t94 86.5t141.5 31.5q80 0 139 -32.5t91.5 -88t32.5 -123.5q0 -70 -35.5 -127t-94.5 -88q58 -30 94 -85t36 -133q0 -45 -15.5 -90t-43 -82.5t-64.5 -61.5l-52 57
q44 31 66.5 74t22.5 103q0 85 -49 136t-130 51q-82 0 -131.5 -51.5t-49.5 -135.5q0 -60 23 -103t66 -74zM328 217q83 0 130.5 50.5t47.5 129.5q0 53 -23 93.5t-63 62.5t-93 22q-81 0 -131 -48.5t-50 -129.5q0 -80 48 -130t134 -50z" />
    <glyph glyph-name="tone1_khm" unicode="&#x109a;" horiz-adv-x="346" 
d="M172 442q-49 0 -79 24.5t-30 70.5q0 45 30 70t79 25q48 0 79.5 -25t31.5 -69q0 -47 -31.5 -71.5t-79.5 -24.5zM173 488q24 0 38.5 12.5t14.5 36.5q0 22 -15 34.5t-38 12.5t-38 -12.5t-15 -34.5q0 -49 53 -49z" />
    <glyph glyph-name="tone3_khm" unicode="&#x109b;" horiz-adv-x="347" 
d="M99 638l79 127h-5q-49 0 -79.5 24.5t-30.5 70.5t31.5 71t76.5 25q49 0 81 -26t32 -69q0 -21 -10 -45.5t-30 -58.5l-72 -119h-73zM174 811q26 0 40 15t14 34q0 22 -14.5 34.5t-39.5 12.5t-39 -12.5t-14 -34.5q0 -23 14.5 -36t38.5 -13z" />
    <glyph glyph-name="_a_atn" unicode="&#x109c;" horiz-adv-x="434" 
d="M172 642q22 0 52 -8.5t67 -27.5l133 -65v-65l-141 72v-4q0 -43 -31.5 -68t-79.5 -25q-49 0 -79 25.5t-30 70.5q0 46 30 70.5t79 24.5zM173 595q-53 0 -53 -48q0 -23 15 -35.5t38 -12.5t38 12.5t15 35.5t-14.5 35.5t-38.5 12.5zM172 341q44 0 119 -36l133 -65v-66l-141 72
v-3q0 -43 -31.5 -68t-79.5 -25q-49 0 -79 25t-30 70q0 47 30 71.5t79 24.5zM173 293q-53 0 -53 -48q0 -22 15 -34.5t38 -12.5t38 12.5t15 34.5q0 23 -14.5 35.5t-38.5 12.5z" />
    <glyph glyph-name="_ai_atn" unicode="&#x109d;" 
d="M-162 497v349q0 74 -38 108t-99 34q-65 0 -101 -31.5t-36 -83.5v-6h-77v6q0 54 27 94.5t74.5 62.5t110.5 22q100 0 158 -51.5t58 -150.5v-353h-77z" />
    <glyph glyph-name="sone_shn" unicode="&#x109e;" horiz-adv-x="336" 
d="M161 735q-49 0 -79 25t-30 71q0 45 30 70t79 25q48 0 79.5 -25t31.5 -70q0 -46 -31 -71t-80 -25zM162 783q23 0 38 13t15 35q0 23 -15 35t-38 12t-38 -12t-15 -35q0 -22 13.5 -35t39.5 -13zM157 -271v841h-126v61h214v-841h125v-61h-213z" />
    <glyph glyph-name="exclam_shn" unicode="&#x109f;" horiz-adv-x="954" 
d="M683 -271q-81 0 -129 43t-48 135v472q0 95 -50 145.5t-129 50.5t-130 -51.5t-51 -144.5q0 -60 23 -104.5t66 -76.5l-51 -58q-36 22 -65.5 59t-46.5 84t-17 98q0 77 36 135.5t97.5 91t138.5 32.5q83 0 143.5 -33t93.5 -91.5t33 -134.5v-481q0 -105 90 -105q44 0 66 28.5
t22 77.5v450q0 109 -34 186.5t-118 138.5q-62 45 -95.5 75.5t-46 60.5t-12.5 71q0 45 25 83.5t69.5 62t102.5 23.5q72 0 121.5 -28t71.5 -79l-68 -32q-35 78 -120 78q-52 0 -84.5 -31t-32.5 -77q0 -63 78 -116q85 -57 135.5 -117.5t73 -135t22.5 -170.5v-438
q0 -86 -47.5 -131.5t-132.5 -45.5z" />
    <glyph glyph-name="ga_khm" unicode="&#xaa60;" horiz-adv-x="1125" 
d="M184 140q-36 22 -65.5 59t-46.5 84t-17 98q0 77 36.5 135t100 91t143.5 33q74 0 132.5 -29t94.5 -80q37 43 93 76t136 33q86 0 148.5 -32.5t96.5 -89t34 -128.5q0 -71 -33 -127.5t-93 -89.5t-142 -33q-30 0 -61.5 5t-54.5 12q0 87 35 150t98.5 100t149.5 44
q-17 58 -65.5 90t-116.5 32q-43 0 -77.5 -16.5t-62 -43t-49.5 -56.5q10 -36 10 -76q0 -49 -17 -96t-47 -85t-67 -60l-51 58q44 32 67.5 76.5t23.5 104.5q0 91 -51.5 143t-130.5 52q-83 0 -136 -52t-53 -143q0 -60 23 -104.5t66 -76.5zM793 207q92 0 138.5 50t46.5 130
q-89 -8 -146 -53.5t-63 -125.5q6 -1 12.5 -1h11.5z" />
    <glyph glyph-name="ca_khm" unicode="&#xaa61;" horiz-adv-x="1124" 
d="M170 140q-38 0 -62.5 12.5t-54.5 41.5l50 46q17 -18 31 -25.5t29 -7.5q17 0 27 9t10 22q0 18 -13 32t-37 30q-42 29 -64.5 66.5t-22.5 84.5q0 56 32.5 98.5t91 66.5t137.5 24q80 0 141.5 -30t96.5 -85q31 53 88.5 84t135.5 31q86 0 149.5 -33t98 -90t34.5 -127
q0 -73 -36 -129.5t-100.5 -88.5t-148.5 -32q-69 0 -124 30t-89 79q-16 -33 -39.5 -61t-53.5 -48l-51 58q40 32 65.5 76t25.5 105t-25.5 104.5t-67.5 67t-93 23.5q-87 0 -132.5 -35t-45.5 -88q0 -28 14 -54t55 -58t52.5 -53.5t11.5 -51.5q0 -22 -13.5 -43.5t-39.5 -36
t-63 -14.5zM786 207q86 0 138 50t52 131q0 83 -50.5 134.5t-138.5 51.5q-51 0 -91.5 -23t-63.5 -65t-23 -98q0 -54 22.5 -95t62.5 -63.5t92 -22.5z" />
    <glyph glyph-name="cha_khm" unicode="&#xaa62;" horiz-adv-x="880" 
d="M601 140q-47 0 -78.5 16t-60 48t-65.5 79q-35 44 -68 44q-23 0 -49.5 -26.5t-55 -67.5t-57.5 -84h-76v482h88v-244q0 -23 -1.5 -48t-2.5 -48l2 -2q23 27 44.5 51t47 38.5t58.5 14.5q44 0 77.5 -21t67.5 -65q34 -46 60.5 -73.5t67.5 -27.5q38 0 68.5 25.5t48 68t17.5 93.5
q0 83 -45.5 132.5t-117.5 49.5q-17 0 -33 -1.5t-28 -5.5l-31 60q19 7 43 9.5t58 2.5q70 0 125.5 -30.5t87 -86.5t31.5 -132q0 -65 -28 -122.5t-78.5 -93t-116.5 -35.5z" />
    <glyph glyph-name="ja_khm" unicode="&#xaa63;" horiz-adv-x="1128" 
d="M172 140q-39 0 -64 12.5t-56 41.5l50 46q33 -33 64 -33q18 0 29 9.5t11 22.5q0 24 -32 45q-54 38 -83 73.5t-29 93.5q0 85 64 137t204 52q83 0 146.5 -30t101.5 -83q30 52 87.5 82.5t136.5 30.5q84 0 145 -33t94 -90t33 -127q0 -74 -34 -130.5t-94 -88t-137 -31.5
q-78 0 -134 29.5t-88 79.5q-41 -71 -111 -108q-64 41 -97 98t-33 134q0 60 22 106.5t55 78.5q-41 16 -90 16q-89 0 -135.5 -34.5t-46.5 -88.5q0 -29 14.5 -54t57.5 -56q43 -32 56 -54.5t13 -51.5q0 -35 -31 -65t-89 -30zM812 207q48 0 86.5 22.5t61 63.5t22.5 95
q0 83 -49.5 134.5t-129.5 51.5q-57 0 -97 -25t-61.5 -67t-21.5 -94q0 -82 50.5 -131.5t138.5 -49.5zM426 373q0 -48 12 -80t40 -61q28 29 45.5 65.5t17.5 81.5q0 87 -57 141q-28 -29 -43 -67t-15 -80z" />
    <glyph glyph-name="jha_khm" unicode="&#xaa64;" horiz-adv-x="1126" 
d="M333 140q-79 0 -142 33t-99.5 91.5t-36.5 134.5q0 74 35 138.5t94 102.5l51 -57q-43 -31 -66 -76t-23 -106q0 -59 24 -103t66.5 -67.5t96.5 -23.5q81 0 132.5 52.5t51.5 141.5q0 61 -23.5 106t-66.5 76l50 57q59 -36 94 -100q33 46 89.5 73t133.5 27q84 0 146 -33
t96.5 -90t34.5 -127q0 -73 -36 -129.5t-99 -88.5t-145 -32q-81 0 -138.5 31.5t-89.5 83.5q-35 -53 -94.5 -84t-135.5 -31zM794 207q55 0 96.5 22.5t65 63.5t23.5 95q0 83 -50 134.5t-134 51.5q-86 0 -136 -50.5t-50 -135.5q0 -82 51.5 -131.5t133.5 -49.5z" />
    <glyph glyph-name="nya_khm" unicode="&#xaa65;" horiz-adv-x="1104" 
d="M789 140q78 0 136.5 32t91 89t32.5 130t-33.5 129t-94.5 88t-144 32q-82 0 -143 -31t-94.5 -86.5t-33.5 -127.5q0 -86 -49 -137t-135 -51q-80 0 -128 51t-48 135q0 53 21.5 94t61 64.5t93.5 23.5q25 0 43 -3.5t33 -7.5l31 60q-25 10 -50 13t-66 3q-77 0 -135.5 -34
t-90.5 -91t-32 -124q0 -73 33.5 -129.5t94.5 -89t142 -32.5q56 0 101.5 16.5t79.5 44.5v-411h-125v-61h213v659q0 88 47 137.5t135 49.5q82 0 132 -49.5t50 -137.5q0 -81 -48 -131t-128 -50q-14 0 -29 2t-28 7l-30 -62q19 -4 42 -9t52 -5z" />
    <glyph glyph-name="tta_khm" unicode="&#xaa66;" horiz-adv-x="1124" 
d="M324 140q-80 0 -140.5 32.5t-94.5 89t-34 128.5q0 71 34 127.5t95.5 89.5t142.5 33q79 0 138.5 -28t94.5 -76q39 52 99.5 78t132.5 26q85 0 147 -33t96 -89.5t34 -127.5q0 -76 -33.5 -132t-91.5 -87t-134 -31q-46 0 -79 5t-62 18l32 60q38 -16 95 -16q82 0 132 49t50 132
q0 84 -49.5 135t-134.5 51q-57 0 -109 -30.5t-87 -85.5q9 -34 9 -71q0 -73 -35 -128.5t-98.5 -87t-149.5 -31.5zM327 207q89 0 138.5 49.5t49.5 128.5q0 84 -48.5 136.5t-138.5 52.5q-54 0 -95 -23t-64 -65t-23 -98q0 -55 24 -95.5t65 -63t92 -22.5zM333 333
q-27 0 -44.5 14.5t-17.5 46.5t17 46t45 14q25 0 44 -14t19 -46t-19 -46.5t-44 -14.5z" />
    <glyph glyph-name="ttha_khm" unicode="&#xaa67;" horiz-adv-x="1125" 
d="M329 140q-83 0 -144.5 32.5t-95.5 89t-34 128.5q0 71 34.5 127.5t96.5 89.5t146 33q74 0 130.5 -25.5t92.5 -68.5q45 47 100.5 70.5t136.5 23.5q85 0 147.5 -33t96.5 -89.5t34 -127.5q0 -73 -34.5 -129.5t-98 -88.5t-150.5 -32q-78 0 -135.5 25.5t-94.5 71.5
q-37 -46 -95.5 -71.5t-132.5 -25.5zM332 207q86 0 135.5 50t49.5 131q0 83 -48.5 134.5t-135.5 51.5q-84 0 -135.5 -50.5t-51.5 -135.5q0 -55 24.5 -95.5t66.5 -63t95 -22.5zM609 390q0 -44 -13 -83q25 -46 75 -73.5t117 -27.5q88 0 139.5 50.5t51.5 131.5q0 86 -48.5 136
t-136.5 50q-61 0 -110.5 -20.5t-88.5 -77.5q14 -40 14 -86zM333 333q-27 0 -44.5 14.5t-17.5 46.5t17 46t45 14q25 0 44 -14t19 -46t-19 -46.5t-44 -14.5z" />
    <glyph glyph-name="dda_khm" unicode="&#xaa68;" horiz-adv-x="1126" 
d="M332 140q-80 0 -142.5 32t-98.5 88.5t-36 129.5q0 70 34.5 127t96 90t143.5 33q79 0 137.5 -28.5t93.5 -76.5q36 47 91 76t130 29q85 0 151 -32.5t103 -89t37 -128.5q0 -71 -33 -127.5t-93 -89.5t-142 -33q-30 0 -58 5t-51 12q0 130 73.5 206.5t202.5 87.5
q-18 58 -68.5 90t-125.5 32q-57 0 -103 -32.5t-78 -84.5q8 -32 8 -66q0 -72 -33 -128.5t-94 -89t-145 -32.5zM329 207q83 0 133.5 49.5t50.5 131.5q0 85 -49 135.5t-136 50.5q-82 0 -131.5 -51.5t-49.5 -134.5q0 -54 23 -95t64.5 -63.5t94.5 -22.5zM328 333q-26 0 -44 14.5
t-18 46.5t17.5 46t44.5 14q26 0 44.5 -14t18.5 -46t-19 -46.5t-44 -14.5zM795 207q92 0 138.5 50t46.5 130q-89 -8 -143 -53.5t-59 -126.5h8.5h8.5z" />
    <glyph glyph-name="ddha_khm" unicode="&#xaa69;" horiz-adv-x="1127" 
d="M334 140q-85 0 -147.5 32.5t-97 89t-34.5 128.5q0 71 34.5 127.5t98 89.5t149.5 33q83 0 139.5 -31t86.5 -83q30 52 87 83t140 31q86 0 149.5 -33t98 -90t34.5 -127q0 -73 -36 -129.5t-100.5 -88.5t-148.5 -32q-82 0 -138 31t-86 84q-31 -53 -89 -84t-140 -31zM327 207
q91 0 141 50.5t50 131.5q0 83 -50.5 134t-133.5 51q-85 0 -136.5 -50.5t-51.5 -135.5q0 -55 24 -95.5t65 -63t92 -22.5zM802 574q-77 0 -122.5 -32.5t-60.5 -89.5q112 -11 184.5 -67t92.5 -153q39 22 61.5 62.5t22.5 93.5q0 56 -22.5 97.5t-62.5 65t-93 23.5zM333 333
q-27 0 -44.5 14.5t-17.5 46.5t17 46t45 14q25 0 44 -14t19 -46t-19 -46.5t-44 -14.5zM798 207q11 0 22 1q-2 73 -57 121t-152 58q1 -82 52 -131t135 -49z" />
    <glyph glyph-name="dha_khm" unicode="&#xaa6a;" horiz-adv-x="1127" 
d="M334 140q-85 0 -147.5 32.5t-97 89t-34.5 128.5q0 71 34.5 127.5t98 89.5t149.5 33q83 0 139.5 -31t86.5 -83q30 52 87 83t140 31q86 0 149.5 -33t98 -90t34.5 -127q0 -73 -36 -129.5t-100.5 -88.5t-148.5 -32q-82 0 -138 31t-86 84q-31 -53 -89 -84t-140 -31zM327 207
q91 0 141 50.5t50 131.5q0 83 -50.5 134t-133.5 51q-85 0 -136.5 -50.5t-51.5 -135.5q0 -55 24 -95.5t65 -63t92 -22.5zM802 574q-77 0 -122.5 -32.5t-60.5 -89.5q112 -11 184.5 -67t92.5 -153q39 22 61.5 62.5t22.5 93.5q0 56 -22.5 97.5t-62.5 65t-93 23.5zM798 207
q11 0 22 1q-3 74 -57.5 121.5t-151.5 57.5q1 -82 52 -131t135 -49z" />
    <glyph glyph-name="na_khm" unicode="&#xaa6b;" horiz-adv-x="668" 
d="M228 140q-37 18 -69 53.5t-51.5 83.5t-19.5 101q0 21 3 41q-49 27 -72 69t-23 89q0 16 2 29t3 25h83q-3 -19 -4 -30.5t-1 -20.5q0 -24 9 -48t24 -38q30 64 92.5 105t152.5 41q73 0 131 -33t91.5 -91.5t33.5 -134.5q0 -49 -16 -95t-45.5 -84t-67.5 -62l-51 58
q43 32 66 76.5t23 104.5q0 88 -46 141.5t-123 53.5q-63 0 -106 -32.5t-63 -80.5q82 -30 115.5 -70.5t33.5 -87.5t-29.5 -93t-75.5 -70zM168 379q0 -51 17 -90t42 -60q17 16 22.5 36.5t5.5 36.5q0 26 -20 50.5t-67 40.5v-14z" />
    <glyph glyph-name="sa_khm" unicode="&#xaa6c;" horiz-adv-x="1255" 
d="M333 140q-84 0 -146.5 33t-97 90t-34.5 128q0 72 33.5 128.5t91.5 88.5t130 32q28 0 48.5 -2t40.5 -6l-21 -63q-13 5 -26.5 5.5t-28.5 0.5q-51 0 -91 -22.5t-63 -63.5t-23 -96t24 -96.5t67 -65.5t100 -24q45 0 80 18.5t54.5 49.5t19.5 70q0 25 -5 40t-10 29t-5 37
q0 43 43 73.5t113 30.5q71 0 114 -30.5t43 -73.5q0 -20 -5 -35t-10 -31.5t-5 -39.5q0 -37 20 -68.5t54.5 -50.5t79.5 -19q58 0 100.5 24t66.5 65.5t24 96.5q0 56 -23.5 97t-63.5 63t-91 22q-15 0 -28.5 -0.5t-27.5 -5.5l-20 63q36 8 90 8q73 0 131 -32.5t91 -89t33 -127.5
q0 -73 -35 -130t-98 -89t-146 -32q-69 0 -123.5 26.5t-86.5 70.5t-32 96q0 36 8 62t8 44q0 23 -21.5 34.5t-47.5 11.5q-24 0 -45 -11.5t-21 -34.5q0 -20 8 -45t8 -61q0 -53 -31.5 -97t-86.5 -70t-125 -26z" />
    <glyph glyph-name="ha_khm" unicode="&#xaa6d;" horiz-adv-x="999" 
d="M227 -271q-71 0 -123.5 25.5t-81 72.5t-28.5 110v14h85v-16q0 -73 41 -109.5t107 -36.5q75 0 111.5 43t36.5 120v441q-35 -19 -74 -19q-41 0 -74.5 18t-53.5 48t-20 67t20 67t53.5 48t74.5 18q48 0 87.5 -23t55.5 -60q41 42 97.5 63.5t124.5 21.5q80 0 143 -33t98.5 -90
t35.5 -127q0 -76 -33.5 -132t-91.5 -86.5t-133 -30.5q-43 0 -75.5 4.5t-59.5 15.5l32 60q18 -7 41 -11t58 -4q49 0 88 22.5t61 63.5t22 96q0 52 -24 94t-65.5 66.5t-95.5 24.5q-69 0 -118 -28t-90 -77v-513q0 -105 -59.5 -166.5t-172.5 -61.5zM304 442q32 0 51.5 19t19.5 45
q0 29 -22.5 47t-48.5 18q-29 0 -50.5 -18t-21.5 -47q0 -28 23 -46t49 -18z" />
    <glyph glyph-name="hha_khm" unicode="&#xaa6e;" horiz-adv-x="1125" 
d="M323 140q-81 0 -141 32.5t-93.5 89t-33.5 128.5t33.5 128.5t93 89t137.5 32.5q114 0 181.5 -61.5t101.5 -168.5t82 -154.5t125 -47.5q48 0 86.5 22.5t60.5 64t22 98.5q0 84 -50 133t-127 49q-26 0 -49.5 -4.5t-42.5 -11.5l-32 59q27 13 59.5 17.5t78.5 4.5
q74 0 131.5 -31t90 -87t32.5 -131q0 -72 -33.5 -128.5t-92.5 -89.5t-137 -33q-113 0 -177.5 57t-101.5 167t-84.5 160t-113.5 50q-67 0 -113 -32.5t-62 -90.5q130 -11 204 -86.5t74 -207.5q-23 -7 -51 -12t-58 -5zM326 207q12 0 24 1q-4 78 -61 125.5t-143 53.5
q0 -80 47.5 -130t132.5 -50z" />
    <glyph glyph-name="fa_khm" unicode="&#xaa6f;" horiz-adv-x="879" 
d="M91 149v482h77l124 -160q24 75 91 122t169 47q81 0 142.5 -33t95.5 -90t34 -127q0 -73 -36 -129.5t-98 -88.5t-141 -32q-80 0 -138 29.5t-91.5 81t-38.5 117.5l-17 23q-15 20 -41.5 55t-48.5 72h-4q4 -39 7 -94.5t3 -133.5v-141h-89zM552 207q52 0 93 22.5t64 63.5t23 95
q0 83 -49.5 134.5t-129.5 51.5q-86 0 -134 -50.5t-48 -135.5q0 -82 49.5 -131.5t131.5 -49.5z" />
    <glyph glyph-name="redup_khm" unicode="&#xaa70;" horiz-adv-x="398" 
d="M-43 921l-38 56q66 35 139.5 55t140.5 20q66 0 139.5 -19.5t140.5 -55.5l-38 -56q-57 32 -121 49t-121 17t-121 -17t-121 -49zM-33 734l-44 51q61 44 132 70t142 26t142 -26t132 -70l-44 -51q-69 46 -125.5 63.5t-104.5 17.5q-46 0 -101 -16t-129 -65z" />
    <glyph glyph-name="xa_khm" unicode="&#xaa71;" horiz-adv-x="1122" 
d="M203 141q-69 37 -108.5 102t-39.5 138q0 77 37 135t101 91t146 33q70 0 127.5 -28t93.5 -77q39 52 98 78.5t132 26.5q86 0 148 -33t95.5 -89.5t33.5 -127.5q0 -76 -33.5 -132t-91.5 -86.5t-133 -30.5q-46 0 -79.5 5t-61.5 18l32 60q37 -17 94 -17q82 0 132 49.5t50 131.5
q0 83 -48 134t-137 51q-64 0 -109.5 -30.5t-83.5 -84.5q10 -37 10 -77q0 -73 -36 -138.5t-95 -102.5l-51 58q44 30 67 75t23 106q0 59 -22.5 102.5t-62 68t-92.5 24.5q-43 0 -81 -15q34 -33 56 -79t22 -108q0 -150 -133 -231zM136 379q0 -46 21 -82t44 -64q29 28 41.5 60.5
t12.5 78.5q0 43 -14 81.5t-46 67.5q-27 -26 -43 -62t-16 -80z" />
    <glyph glyph-name="za_khm" unicode="&#xaa72;" horiz-adv-x="1254" 
d="M273 140q-106 0 -168 56.5t-62 158.5q0 38 8.5 71t21.5 60q105 -14 157.5 -70t52.5 -160q0 -14 -1 -24.5t-3 -23.5q74 9 74 70q0 26 -5 47t-10 44t-5 56q0 62 28 110.5t77.5 76.5t111.5 28q64 0 118 -27.5t85 -89.5q25 52 76 84.5t126 32.5q77 0 131.5 -33.5t83.5 -90
t29 -125.5t-28.5 -126t-82.5 -91t-131 -34q-66 0 -117 26.5t-78 75.5q-16 -33 -37.5 -57.5t-47.5 -44.5l-51 58q40 32 60.5 76.5t20.5 104.5q0 91 -42.5 143.5t-106.5 52.5q-62 0 -98.5 -43t-36.5 -117q0 -29 3.5 -46.5t7.5 -37t4 -54.5q0 -59 -44.5 -98t-120.5 -39z
M953 207q71 0 113 48.5t42 132.5q0 86 -42.5 136.5t-111.5 50.5q-44 0 -79 -23t-55.5 -64.5t-20.5 -99.5q0 -81 42 -131t112 -50zM128 361q0 -55 20.5 -93.5t57.5 -53.5q2 10 2 22v25q0 51 -16.5 89t-58.5 57q-3 -11 -4 -22.5t-1 -23.5z" />
    <glyph glyph-name="ra_khm" unicode="&#xaa73;" horiz-adv-x="880" 
d="M600 140q-40 0 -70.5 9.5t-61 34t-68.5 67.5l-125 140q-18 20 -46.5 54.5t-54.5 72.5h-4q4 -39 7 -94.5t3 -133.5v-141h-89v482h77l294 -333q44 -50 77 -71t68 -21q41 0 68.5 27.5t41 70t13.5 86.5q0 94 -45 139.5t-114 45.5q-17 0 -33 -1.5t-29 -5.5l-31 60q19 7 43 9.5
t58 2.5q71 0 126 -30.5t87 -86t32 -132.5q0 -67 -28 -124t-78.5 -92t-117.5 -35z" />
    <glyph glyph-name="qay_khm" unicode="&#xaa74;" horiz-adv-x="954" 
d="M243 -270q-61 0 -103.5 36t-42.5 97q0 57 40.5 95.5t105.5 38.5q41 0 76 -19v161q-80 4 -139 37.5t-92 90.5t-33 131q0 71 34.5 136.5t95.5 105.5l50 -58q-43 -32 -66 -76.5t-23 -105.5q0 -92 47 -141t126 -54v190q0 72 37.5 136t96.5 109q69 -37 107 -102.5t38 -139.5
q0 -64 -25.5 -116t-69.5 -86.5t-99 -48.5v-249q40 -51 85 -76.5t101 -25.5q83 0 134 49.5t51 129.5v396q0 63 -9.5 109.5t-32.5 83.5t-63 73.5t-102 80.5q-49 34 -74 73t-25 92q0 45 25 83.5t69.5 62t102.5 23.5q72 0 121.5 -28t71.5 -79l-68 -32q-35 78 -120 78
q-52 0 -84.5 -31t-32.5 -77q0 -63 79 -116q85 -56 135 -113t72.5 -126.5t22.5 -162.5v-392q0 -69 -34.5 -124t-94.5 -87.5t-139 -32.5q-50 0 -103.5 18t-105.5 63q-15 -38 -54 -59t-89 -21zM404 395v-177q49 20 81 67t32 115q0 44 -14.5 79t-39.5 62q-24 -29 -41.5 -66.5
t-17.5 -79.5zM248 -201q28 0 50 18t22 47q0 26 -20 45t-52 19q-26 0 -48.5 -18t-22.5 -46q0 -29 21 -47t50 -18z" />
    <glyph glyph-name="qn_khm" unicode="&#xaa75;" horiz-adv-x="1382" 
d="M170 140q-38 0 -62.5 12.5t-54.5 41.5l50 46q17 -18 31 -25.5t29 -7.5q17 0 27 9t10 22q0 24 -31 46q-51 38 -78.5 75t-27.5 92t31.5 98t89.5 67t135 24t136.5 -28t94.5 -78q80 106 226 106q83 0 144 -32.5t94 -89t33 -128.5q0 -71 -27.5 -123.5t-76 -84.5t-112.5 -39
v-245q40 -51 85 -76.5t101 -25.5q83 0 134 49.5t51 129.5v396q0 63 -9.5 109.5t-32.5 83.5t-63 73.5t-102 80.5q-49 34 -74 73t-25 92q0 45 25 83.5t69 62t103 23.5q72 0 121.5 -28t71.5 -79l-68 -32q-35 78 -120 78q-52 0 -84.5 -31t-32.5 -77q0 -63 79 -116
q84 -56 134.5 -113t73 -126.5t22.5 -162.5v-392q0 -69 -34.5 -124t-95 -87.5t-138.5 -32.5q-50 0 -103.5 18t-105.5 63q-15 -38 -54 -59t-89 -21q-62 0 -104 36t-42 97q0 57 41 95.5t105 38.5q41 0 76 -19v165q-32 2 -53 7.5t-38 12.5l32 60q36 -16 92 -16q80 0 128.5 49.5
t48.5 131.5q0 83 -48 134.5t-131 51.5q-63 0 -108.5 -32t-80.5 -88q9 -34 9 -73q0 -49 -17 -96t-46 -85t-66 -60l-51 58q43 32 66 76.5t23 104.5q0 61 -24 104.5t-64.5 67t-91.5 23.5q-85 0 -129 -34.5t-44 -88.5q0 -28 13.5 -53t54.5 -57t53 -54t12 -53q0 -22 -13.5 -43.5
t-39.5 -36t-63 -14.5zM675 -201q28 0 50 18t22 47q0 26 -20 45t-52 19q-26 0 -48.5 -18t-22.5 -46q0 -29 21 -47t50 -18z" />
    <glyph glyph-name="hm_khm" unicode="&#xaa76;" horiz-adv-x="1413" 
d="M266 -271q-97 0 -149 34.5t-52 101.5q0 59 43.5 95t108.5 36q37 0 68.5 -9.5t75.5 -45.5l-55 -47q-17 15 -35.5 25t-47.5 10q-25 0 -46.5 -15t-21.5 -49t30.5 -53t79.5 -19h95q58 0 85 30t27 84v485q0 85 -49.5 134t-129.5 49q-59 0 -103.5 -28.5t-69.5 -85.5l-70 33
q27 68 92 107t150 39q76 0 133.5 -27.5t91.5 -73.5q35 46 94 73.5t142 27.5q85 0 149 -32t99.5 -88t35.5 -129q0 -75 -38 -134.5t-107 -88.5v-269q38 -52 78.5 -77.5t101.5 -25.5q43 0 79.5 22.5t58.5 63t22 93.5v396q0 63 -9.5 109.5t-32 83.5t-62 73t-100.5 79
q-51 36 -76.5 75t-25.5 92q0 45 25 83.5t69 62t103 23.5q72 0 121.5 -28t71.5 -79l-68 -32q-35 78 -120 78q-52 0 -84.5 -31t-32.5 -77q0 -63 79 -116q84 -56 134.5 -113t73 -126.5t22.5 -162.5v-392q0 -69 -33 -124t-88.5 -87.5t-121.5 -32.5q-59 0 -107 17.5t-95 62.5
q-16 -37 -53 -58t-83 -21q-61 0 -100.5 36t-39.5 97q0 57 38 95.5t102 38.5q35 0 68 -17v235q65 15 101.5 61t36.5 112q0 86 -53 136.5t-140 50.5q-98 0 -145 -51.5t-47 -150.5v-455q0 -189 -206 -189h-88zM743 -201q25 0 45 18t20 47q0 26 -19 45t-46 19t-46 -18t-19 -46
q0 -29 18 -47t47 -18z" />
    <glyph glyph-name="exclam_atn" unicode="&#xaa77;" horiz-adv-x="974" 
d="M354 712q-51 26 -83 70.5t-32 103.5q0 51 24 88t65 57t93 20q51 0 91.5 -19t63.5 -54l-57 -40q-17 25 -41.5 39t-55.5 14q-49 0 -76 -30.5t-27 -74.5q0 -47 24.5 -77.5t54.5 -49.5zM509 -271v671q0 48 -20 87.5t-60.5 63t-101.5 23.5q-83 0 -132 -50t-49 -136
q0 -82 49 -131.5t128 -49.5q15 0 29.5 2t26.5 7l30 -62q-23 -6 -45 -10t-51 -4q-74 0 -132.5 31t-92 87t-33.5 132q0 72 34 128.5t95 89t142 32.5q42 0 80 -9h412v-421h125v-61h-213v421h-206q73 -67 73 -168v-612h125v-61h-213z" />
    <glyph glyph-name="one_atn" unicode="&#xaa78;" horiz-adv-x="720" 
d="M190 134l-54 43q37 43 89.5 72t116.5 29q66 0 117.5 -24.5t90.5 -68.5q-5 24 -6 52t-1 66q0 101 21 203.5t58.5 191t89.5 147.5q78 89 164 89q71 0 108 -42l-48 -43q-16 21 -57 21q-45 0 -87.5 -37.5t-78.5 -105t-61 -158.5q-37 -135 -37 -272q0 -57 6 -97l-64 -37v0
l-51 -29q-26 32 -66 56t-93 24q-51 0 -91 -24t-66 -56zM342 504q-64 0 -116.5 28.5t-89.5 71.5l54 44q26 -32 66 -56t91 -24q53 0 93 24t66 56l54 -44q-37 -42 -91.5 -71t-126.5 -29zM89 200l-47 48q35 24 61.5 59.5t26.5 81.5q0 47 -26.5 84t-61.5 59l47 49
q48 -32 80 -81.5t32 -113.5q0 -58 -32 -106t-80 -80z" />
    <glyph glyph-name="two_atn" unicode="&#xaa79;" horiz-adv-x="689" 
d="M510 -271v659q0 88 -47 137.5t-135 49.5q-82 0 -132 -49.5t-50 -137.5q0 -81 48 -131t128 -50q14 0 29 2t28 7l30 -62q-19 -4 -42 -9t-52 -5q-78 0 -136.5 32t-91 89t-32.5 130t33.5 129t94.5 88t144 32q82 0 143 -31t94.5 -86.5t33.5 -127.5v-605h125v-61h-213z" />
    <glyph glyph-name="ra_atn" unicode="&#xaa7a;" horiz-adv-x="1334" 
d="M296 -271q-205 0 -205 192v781q0 192 205 192h335q57 0 84.5 30t27.5 84v44h89v-30q0 -193 -206 -193h-334q-58 0 -84.5 -30.5t-26.5 -82.5v-809q0 -54 26.5 -84t84.5 -30h340q57 0 84.5 30t27.5 84v481q0 88 -47 137.5t-135 49.5q-82 0 -132 -49.5t-50 -137.5
q0 -81 48 -131t128 -50q14 0 29 2t28 7l30 -62q-19 -4 -42 -9t-52 -5q-77 0 -136 32t-91.5 89t-32.5 130t33.5 129t94.5 88t144 32q82 0 143 -31t94.5 -86.5t33.5 -127.5q0 -86 49 -137t135 -51q80 0 128 51t48 135q0 53 -21.5 94t-61 64.5t-93.5 23.5q-25 0 -43 -3.5
t-33 -7.5l-31 60q25 10 50 13t66 3q77 0 135.5 -34t90.5 -91t32 -124q0 -73 -33.5 -129.5t-94.5 -89t-142 -32.5q-56 0 -101 16.5t-79 44.5v-280q0 -192 -206 -192h-331z" />
    <glyph glyph-name="tone_pak" unicode="&#xaa7b;" horiz-adv-x="346" 
d="M175 12l-72 120q-40 65 -40 103q0 43 31.5 69.5t81.5 26.5q45 0 76.5 -24.5t31.5 -71.5t-30.5 -71.5t-79.5 -24.5h-5l79 -127h-73zM173 186q24 0 38.5 12.5t14.5 36.5q0 22 -14 34t-39 12t-39.5 -12t-14.5 -34q0 -19 14.5 -34t39.5 -15z" />
    <glyph glyph-name="_tall_aa_asat" horiz-adv-x="267" 
d="M91 149v708q0 59 -36.5 96.5t-110.5 37.5q-66 0 -106.5 -33.5t-40.5 -100.5v-14h-85v13q0 59 29 103t81 68.5t121 24.5q130 0 191 -82q28 38 75.5 60t114.5 22q70 0 121.5 -24.5t80.5 -68.5t29 -103v-13h-85v14q0 67 -40.5 100.5t-106.5 33.5q-73 0 -110 -37.5t-37 -96.5
v-708h-85z" />
    <glyph glyph-name="asat_anusvara" 
d="M-371 712q-51 26 -83 70.5t-32 103.5q0 51 24 88t65 57t93 20q51 0 91.5 -19t63.5 -54l-57 -40q-16 25 -41 39t-56 14q-49 0 -76 -30.5t-27 -74.5q0 -47 24 -77.5t55 -49.5zM-296 847q-20 0 -34.5 11.5t-14.5 32.5t13.5 32t34.5 11q20 0 33.5 -11t13.5 -32
q0 -19 -12.5 -31.5t-33.5 -12.5z" />
    <glyph glyph-name="ai_dup" 
d="M-208 699l-161 126q-18 13 -31.5 33t-13.5 46q0 40 28.5 62.5t66.5 22.5q39 0 64.5 -23t25.5 -61q0 -28 -13.5 -43.5t-32.5 -28.5l110 -87zM-133 780l-86 67l45 46l84 -67z" />
    <glyph glyph-name="asat_dup" 
d="M-371 712q-51 26 -83 70.5t-32 103.5q0 51 24 88t65 57t93 20q51 0 91.5 -19t63.5 -54l-57 -40q-16 25 -41 39t-56 14q-49 0 -76 -30.5t-27 -74.5q0 -47 24 -77.5t55 -49.5zM-337 889l-43 19q6 21 27.5 36t47.5 15q27 0 45 -10.5t31 -26.5l-40 -26q-6 21 -35 21
q-28 0 -33 -28z" />
    <glyph glyph-name="medial_ha_u" 
d="M-286 -271v376h88v-315h126v-61h-214zM-571 -271v61h125v315h88v-376h-213z" />
    <glyph glyph-name="medial_ha_uu" 
d="M-233 -271v376h87v-315h125v-61h-212zM-394 -271v376h88v-376h-88zM-680 -271v61h125v315h88v-376h-213z" />
    <glyph glyph-name="_i_ai" 
d="M-326 712q-49 0 -85 22.5t-56 61t-20 86.5q0 49 20.5 87t57.5 60t85 22q50 0 86.5 -23t56.5 -62t20 -88q0 -46 -20 -83.5t-57.5 -60t-87.5 -22.5zM-324 773q36 0 59.5 28.5t23.5 74.5q0 49 -22 82t-61 33q-38 0 -60.5 -31.5t-22.5 -79.5q0 -46 22.5 -76.5t60.5 -30.5z
M-576 708l-150 321l68 29l150 -321z" />
    <glyph glyph-name="_i_anusvara" 
d="M-374 712q-49 0 -85 22.5t-56 61t-20 86.5q0 49 20.5 87t57.5 60t85 22q50 0 86.5 -23t56.5 -62t20 -88q0 -46 -20 -83.5t-57.5 -60t-87.5 -22.5zM-372 773q36 0 59.5 28.5t23.5 74.5q0 49 -22 82t-61 33q-38 0 -60.5 -31.5t-22.5 -79.5q0 -46 22.5 -76.5t60.5 -30.5z
M-80 714q-49 0 -79 25t-30 71q0 45 30 70t79 25q48 0 79.5 -25t31.5 -69q0 -47 -31.5 -72t-79.5 -25zM-79 762q23 0 38 13t15 35t-15 34.5t-38 12.5t-38 -12.5t-15 -34.5q0 -48 53 -48z" />
    <glyph glyph-name="kinzi_ai" 
d="M-332 712q-50 0 -81 26t-31 72q0 24 9 42t24 30q-32 31 -32 73q0 47 30.5 72t80.5 25q61 0 94 -38l-47 -38q-20 17 -46 17q-19 0 -30.5 -9.5t-11.5 -28.5q0 -25 28 -48q6 1 13 1q34 0 62 -14t42 -40l-57 -26q-13 21 -44 21q-20 0 -32 -10.5t-12 -28.5q0 -38 43 -38
q31 0 46 21l56 -27q-14 -26 -41 -40t-63 -14zM-70 708l-150 321l68 29l150 -321z" />
    <glyph glyph-name="kinzi_anusvara" 
d="M-332 712q-50 0 -81 26t-31 72q0 24 9 42t24 30q-32 31 -32 73q0 47 30.5 72t80.5 25q61 0 94 -38l-47 -38q-20 17 -46 17q-19 0 -30.5 -9.5t-11.5 -28.5q0 -25 28 -48q6 1 13 1q34 0 62 -14t42 -40l-57 -26q-13 21 -44 21q-20 0 -32 -10.5t-12 -28.5q0 -38 43 -38
q31 0 46 21l56 -27q-14 -26 -41 -40t-63 -14zM-95 714q-49 0 -79 25t-30 71q0 45 30 70t79 25q48 0 79.5 -25t31.5 -69q0 -47 -31.5 -72t-79.5 -25zM-94 762q23 0 38 13t15 35t-15 34.5t-38 12.5t-38 -12.5t-15 -34.5q0 -48 53 -48z" />
    <glyph glyph-name="kinzi_asat" 
d="M-332 712q-50 0 -81 26t-31 72q0 24 9 42t24 30q-32 31 -32 73q0 47 30.5 72t80.5 25q61 0 94 -38l-47 -38q-20 17 -46 17q-19 0 -30.5 -9.5t-11.5 -28.5q0 -25 28 -48q6 1 13 1q34 0 62 -14t42 -40l-57 -26q-13 21 -44 21q-20 0 -32 -10.5t-12 -28.5q0 -38 43 -38
q31 0 46 21l56 -27q-14 -26 -41 -40t-63 -14zM-88 712q-51 26 -83 70.5t-32 103.5q0 51 24 88t65 57t93 20q51 0 91.5 -19t63.5 -54l-57 -40q-16 25 -41 39t-56 14q-49 0 -76 -30.5t-27 -74.5q0 -47 24.5 -77.5t54.5 -49.5z" />
    <glyph glyph-name="kinzi_i_anusvara" 
d="M-450 712q-50 0 -81 26t-31 72q0 24 9 42t24 30q-32 31 -32 73q0 47 30.5 72t80.5 25q61 0 94 -38l-47 -38q-20 17 -46 17q-19 0 -30.5 -9.5t-11.5 -28.5q0 -25 28 -48q6 1 13 1q34 0 62 -14t42 -40l-57 -26q-13 21 -44 21q-20 0 -32 -10.5t-12 -28.5q0 -38 43 -38
q31 0 46 21l56 -27q-14 -26 -41 -40t-63 -14zM110 714q-49 0 -79 25t-30 71q0 45 30 70t79 25q48 0 79.5 -25t31.5 -69q0 -47 -31.5 -72t-79.5 -25zM111 762q23 0 38 13t15 35t-15 34.5t-38 12.5t-38 -12.5t-15 -34.5q0 -48 53 -48zM-180 712q-49 0 -85 22.5t-56 61
t-20 86.5q0 49 20.5 87t57.5 60t85 22q50 0 86.5 -23t56.5 -62t20 -88q0 -46 -20 -83.5t-57.5 -60t-87.5 -22.5zM-178 773q36 0 59.5 28.5t23.5 74.5q0 49 -22 82t-61 33q-38 0 -60.5 -31.5t-22.5 -79.5q0 -46 22.5 -76.5t60.5 -30.5z" />
    <glyph glyph-name="kinzi_i" 
d="M-180 712q-49 0 -85 22.5t-56 61t-20 86.5q0 49 20.5 87t57.5 60t85 22q50 0 86.5 -23t56.5 -62t20 -88q0 -46 -20 -83.5t-57.5 -60t-87.5 -22.5zM-178 773q36 0 59.5 28.5t23.5 74.5q0 49 -22 82t-61 33q-38 0 -60.5 -31.5t-22.5 -79.5q0 -46 22.5 -76.5t60.5 -30.5z
M-449 712q-50 0 -81 26t-31 72q0 24 9 42t24 30q-32 31 -32 73q0 47 30.5 72t80.5 25q61 0 94 -38l-47 -38q-20 17 -46 17q-19 0 -30.5 -9.5t-11.5 -28.5q0 -25 28 -48q6 1 13 1q34 0 62 -14t42 -40l-57 -26q-13 21 -44 21q-20 0 -32 -10.5t-12 -28.5q0 -38 43 -38
q31 0 46 21l56 -27q-14 -26 -41 -40t-63 -14z" />
    <glyph glyph-name="kinzi_ii" 
d="M-449 712q-50 0 -81 26t-31 72q0 24 9 42t24 30q-32 31 -32 73q0 47 30.5 72t80.5 25q61 0 94 -38l-47 -38q-20 17 -46 17q-19 0 -30.5 -9.5t-11.5 -28.5q0 -25 28 -48q6 1 13 1q34 0 62 -14t42 -40l-57 -26q-13 21 -44 21q-20 0 -32 -10.5t-12 -28.5q0 -38 43 -38
q31 0 46 21l56 -27q-14 -26 -41 -40t-63 -14zM-180 712q-49 0 -85 22.5t-56 61t-20 86.5q0 49 20.5 87t57.5 60t85 22q50 0 86.5 -23t56.5 -62t20 -88q0 -46 -20 -83.5t-57.5 -60t-87.5 -22.5zM-261 877v-10q16 16 37 26t46 10q26 0 46 -9t37 -26v8q0 49 -22 82t-61 33
q-38 0 -60.5 -31.5t-22.5 -82.5zM-177 773q22 0 39.5 11.5t28.5 30.5q-16 14 -32 22t-36 8q-18 0 -35 -8.5t-33 -22.5q10 -17 27 -29t41 -12z" />
    <glyph glyph-name="kinzi_ii_mon" 
d="M-450 712q-50 0 -81 26t-31 72q0 24 9 42t24 30q-32 31 -32 73q0 47 30.5 72t80.5 25q61 0 94 -38l-47 -38q-20 17 -46 17q-19 0 -30.5 -9.5t-11.5 -28.5q0 -25 28 -48q6 1 13 1q34 0 62 -14t42 -40l-57 -26q-13 21 -44 21q-20 0 -32 -10.5t-12 -28.5q0 -38 43 -38
q31 0 46 21l56 -27q-14 -26 -41 -40t-63 -14zM-140 712q-58 0 -103.5 22t-71 60.5t-25.5 87.5q0 47 26 85.5t71 61t103 22.5q56 0 101.5 -22.5t72 -60.5t26.5 -86q0 -50 -26 -88.5t-71.5 -60t-102.5 -21.5zM-140 763q58 0 95.5 32.5t37.5 86.5q0 34 -18 61t-48 42.5
t-67 15.5q-56 0 -94.5 -33.5t-38.5 -85.5q0 -53 37.5 -86t95.5 -33zM-140 802q-38 0 -63.5 23t-25.5 57t25.5 57t63.5 23t63.5 -23t25.5 -57q0 -35 -25.5 -57.5t-63.5 -22.5zM-141 843q20 0 32 11t12 28q0 18 -12.5 28.5t-31.5 10.5q-17 0 -29.5 -10.5t-12.5 -28.5
q0 -17 11.5 -28t30.5 -11z" />
    <glyph glyph-name="kinzi" 
d="M-332 712q-50 0 -81 26t-31 72q0 24 9 42t24 30q-32 31 -32 73q0 47 30.5 72t80.5 25q61 0 94 -38l-47 -38q-20 17 -46 17q-19 0 -30.5 -9.5t-11.5 -28.5q0 -25 28 -48q6 1 13 1q34 0 62 -14t42 -40l-57 -26q-13 21 -44 21q-20 0 -32 -10.5t-12 -28.5q0 -38 43 -38
q31 0 46 21l56 -27q-14 -26 -41 -40t-63 -14z" />
    <glyph glyph-name="ra_asat" 
d="M-191 712q-51 26 -83 70.5t-32 103.5q0 51 24 88t65 57t93 20q51 0 91.5 -19t63.5 -54l-57 -40q-16 25 -41 39t-56 14q-49 0 -76 -30.5t-27 -74.5q0 -47 24.5 -77.5t54.5 -49.5zM-459 712q-87 0 -137 48t-50 123q0 74 48.5 121.5t134.5 47.5q56 0 96 -19.5t59 -54.5
l-58 -40q-13 27 -39.5 40t-59.5 13q-32 0 -56 -16.5t-37 -40.5q83 -14 128.5 -61.5t49.5 -142.5q-18 -10 -37.5 -14t-41.5 -4zM-569 873q3 -40 32 -71t77 -31q-5 48 -35.5 72.5t-73.5 29.5z" />
    <glyph glyph-name="ra_i" 
d="M-449 712q-87 0 -137 48t-50 123q0 74 48.5 121.5t134.5 47.5q56 0 96 -19.5t59 -54.5l-58 -40q-13 27 -39.5 40t-59.5 13q-32 0 -56 -16.5t-37 -40.5q83 -14 128.5 -61.5t49.5 -142.5q-18 -10 -37.5 -14t-41.5 -4zM-559 873q3 -40 32 -71t77 -31q-5 48 -35.5 72.5
t-73.5 29.5zM-146 712q-49 0 -85 22.5t-56 61t-20 86.5q0 49 20.5 87t57.5 60t85 22q50 0 86.5 -23t56.5 -62t20 -88q0 -46 -20 -83.5t-57.5 -60t-87.5 -22.5zM-144 773q36 0 59.5 28.5t23.5 74.5q0 49 -22 82t-61 33q-38 0 -60.5 -31.5t-22.5 -79.5q0 -46 22.5 -76.5
t60.5 -30.5z" />
    <glyph glyph-name="ra_ii" 
d="M-449 712q-87 0 -137 48t-50 123q0 74 48.5 121.5t134.5 47.5q56 0 96 -19.5t59 -54.5l-58 -40q-13 27 -39.5 40t-59.5 13q-32 0 -56 -16.5t-37 -40.5q83 -14 128.5 -61.5t49.5 -142.5q-18 -10 -37.5 -14t-41.5 -4zM-559 873q3 -40 32 -71t77 -31q-5 48 -35.5 72.5
t-73.5 29.5zM-146 712q-49 0 -85 22.5t-56 61t-20 86.5q0 49 20.5 87t57.5 60t85 22q50 0 86.5 -23t56.5 -62t20 -88q0 -46 -20 -83.5t-57.5 -60t-87.5 -22.5zM-227 877v-10q16 16 37 26t46 10q26 0 46 -9t37 -26v8q0 49 -22 82t-61 33q-38 0 -60.5 -31.5t-22.5 -82.5z
M-143 773q22 0 39.5 11.5t28.5 30.5q-16 14 -32 22t-36 8q-18 0 -35 -8.5t-33 -22.5q10 -17 27 -29t41 -12z" />
    <glyph glyph-name="ra_mark" 
d="M-318 712q-87 0 -137 48t-50 123q0 74 48.5 121.5t134.5 47.5q56 0 96 -19.5t59 -54.5l-58 -40q-13 27 -39.5 40t-59.5 13q-32 0 -56 -16.5t-37 -40.5q83 -14 128.5 -61.5t49.5 -142.5q-18 -10 -37.5 -14t-41.5 -4zM-428 873q3 -40 32 -71t77 -31q-5 48 -35.5 72.5
t-73.5 29.5z" />
    <glyph glyph-name="medial_ra_wa" horiz-adv-x="229" 
d="M296 -271q-205 0 -205 192v938q0 193 205 193h324q205 0 205 -193v-26h-89v41q0 54 -27 83.5t-84 29.5h-333q-58 0 -84.5 -29.5t-26.5 -83.5v-967q0 -54 26.5 -84t84.5 -30h199q-35 43 -35 101q0 46 22 85.5t63 63.5t98 24t98.5 -24t63.5 -63.5t22 -85.5t-22.5 -83
t-64.5 -59.5t-99 -22.5h-341zM640 -211q46 0 74.5 29.5t28.5 73.5q0 49 -27.5 82t-75.5 33q-50 0 -77 -31.5t-27 -79.5q0 -46 28 -76.5t76 -30.5z" />
    <glyph glyph-name="medial_ra_wa.w2" horiz-adv-x="229" 
d="M296 -271q-205 0 -205 192v938q0 193 205 193h776q205 0 205 -193v-26h-89v41q0 54 -27 83.5t-84 29.5h-785q-58 0 -84.5 -29.5t-26.5 -83.5v-967q0 -54 26.5 -84t84.5 -30h651q-35 43 -35 101q0 46 22 85.5t63 63.5t98 24t98.5 -24t63.5 -63.5t22 -85.5t-22.5 -83
t-64.5 -59.5t-99 -22.5h-793zM1092 -211q46 0 74.5 29.5t28.5 73.5q0 49 -27.5 82t-75.5 33q-50 0 -77 -31.5t-27 -79.5q0 -46 28 -76.5t76 -30.5z" />
    <glyph glyph-name="medial_ra_wa_tt" horiz-adv-x="229" 
d="M296 -271q-205 0 -205 192v938q0 193 205 193h83v-65h-87q-58 0 -84.5 -29.5t-26.5 -83.5v-967q0 -54 26.5 -84t84.5 -30h199q-35 43 -35 101q0 46 22 85.5t63 63.5t98 24t98.5 -24t63.5 -63.5t22 -85.5t-22.5 -83t-64.5 -59.5t-99 -22.5h-341zM640 -211q46 0 74.5 29.5
t28.5 73.5q0 49 -27.5 82t-75.5 33q-50 0 -77 -31.5t-27 -79.5q0 -46 28 -76.5t76 -30.5z" />
    <glyph glyph-name="medial_ra_wa_tt.w2" horiz-adv-x="229" 
d="M296 -271q-205 0 -205 192v938q0 193 205 193h387v-65h-391q-58 0 -84.5 -29.5t-26.5 -83.5v-967q0 -54 26.5 -84t84.5 -30h651q-35 43 -35 101q0 46 22 85.5t63 63.5t98 24t98.5 -24t63.5 -63.5t22 -85.5t-22.5 -83t-64.5 -59.5t-99 -22.5h-793zM1092 -211
q46 0 74.5 29.5t28.5 73.5q0 49 -27.5 82t-75.5 33q-50 0 -77 -31.5t-27 -79.5q0 -46 28 -76.5t76 -30.5z" />
    <glyph glyph-name="medial_ra.w2" horiz-adv-x="229" 
d="M296 -270q-205 0 -205 192v937q0 193 205 193h776q205 0 205 -193v-26h-89v41q0 54 -27 83.5t-84 29.5h-785q-58 0 -84.5 -29.5t-26.5 -83.5v-966q0 -54 26.5 -84t84.5 -30h785q57 0 84 30t27 84v379h89v-365q0 -192 -205 -192h-776z" />
    <glyph glyph-name="medial_ra_tt" horiz-adv-x="229" 
d="M296 -270q-205 0 -205 192v937q0 193 205 193h83v-65h-87q-58 0 -84.5 -29.5t-26.5 -83.5v-966q0 -54 26.5 -84t84.5 -30h332q57 0 84 30t27 84v379h89v-365q0 -192 -205 -192h-323z" />
    <glyph glyph-name="medial_ra_tt.w2" horiz-adv-x="229" 
d="M296 -270q-205 0 -205 192v937q0 193 205 193h387v-65h-391q-58 0 -84.5 -29.5t-26.5 -83.5v-966q0 -54 26.5 -84t84.5 -30h785q57 0 84 30t27 84v379h89v-365q0 -192 -205 -192h-776z" />
    <glyph glyph-name="medial_ra_bt" horiz-adv-x="229" 
d="M296 -271q-205 0 -205 192v938q0 193 205 193h322q206 0 206 -193v-26h-89v41q0 54 -27.5 83.5t-84.5 29.5h-331q-58 0 -84.5 -29.5t-26.5 -83.5v-967q0 -54 26.5 -84t84.5 -30h43v-64h-39z" />
    <glyph glyph-name="medial_ra_bt.w2" horiz-adv-x="229" 
d="M296 -271q-205 0 -205 192v938q0 193 205 193h775q206 0 206 -193v-26h-89v41q0 54 -27.5 83.5t-84.5 29.5h-784q-58 0 -84.5 -29.5t-26.5 -83.5v-967q0 -54 26.5 -84t84.5 -30h523v-64h-519z" />
    <glyph glyph-name="medial_ra_bt3.w2" horiz-adv-x="229" 
d="M221 -263q-130 30 -130 184v938q0 193 205 193h775q206 0 206 -193v-26h-89v41q0 54 -27.5 83.5t-84.5 29.5h-784q-58 0 -84.5 -29.5t-26.5 -83.5v-967q0 -41 12 -64t31 -33l5 -3v-72z" />
    <glyph glyph-name="medial_ra_bt2.w2" horiz-adv-x="229" 
d="M296 -271q-205 0 -205 192v938q0 193 205 193h775q206 0 206 -193v-26h-89v41q0 54 -27.5 83.5t-84.5 29.5h-784q-58 0 -84.5 -29.5t-26.5 -83.5v-967q0 -54 26.5 -84t84.5 -30h43v-64h-39z" />
    <glyph glyph-name="medial_ra_tt_bt" horiz-adv-x="229" 
d="M296 -271q-205 0 -205 192v938q0 193 205 193h83v-65h-87q-58 0 -84.5 -29.5t-26.5 -83.5v-967q0 -54 26.5 -84t84.5 -30h43v-64h-39z" />
    <glyph glyph-name="medial_ra_tt_bt.w2" horiz-adv-x="229" 
d="M296 -271q-205 0 -205 192v938q0 193 205 193h387v-65h-391q-58 0 -84.5 -29.5t-26.5 -83.5v-967q0 -54 26.5 -84t84.5 -30h523v-64h-519z" />
    <glyph glyph-name="medial_ra_tt_bt3" horiz-adv-x="229" 
d="M221 -263q-130 30 -130 184v938q0 193 205 193h83v-65h-87q-58 0 -84.5 -29.5t-26.5 -83.5v-967q0 -41 12 -64t31 -33l5 -3v-72z" />
    <glyph glyph-name="medial_ra_tt_bt2.w2" horiz-adv-x="229" 
d="M296 -271q-205 0 -205 192v938q0 193 205 193h387v-65h-391q-58 0 -84.5 -29.5t-26.5 -83.5v-967q0 -54 26.5 -84t84.5 -30h43v-64h-39z" />
    <glyph glyph-name="_u" unicode="&#x102f;" 
d="M-368 -271v376h89v-315h125v-61h-214z" />
    <glyph glyph-name="_u_spacing" horiz-adv-x="261" 
d="M81 -271v902h88v-841h126v-61h-214z" />
    <glyph glyph-name="ka.sub" 
d="M-145 -271q-29 0 -53 3.5t-45 12.5l30 55q27 -11 62 -11q51 0 88 32t37 90q0 57 -32.5 95t-92.5 38q-41 0 -77.5 -23t-60.5 -59q6 -25 6 -51q0 -59 -26.5 -106.5t-72.5 -73.5l-44 50q31 23 51 55t20 75q0 60 -37 96.5t-95 36.5q-56 0 -91 -33t-35 -97q0 -44 16.5 -77
t45.5 -56l-44 -50q-42 26 -69.5 73.5t-27.5 106.5q0 61 26.5 104t73 66.5t104.5 23.5q55 0 98 -21t70 -58q62 79 168 79q63 0 109 -26t71.5 -70t25.5 -97q0 -54 -27 -95t-72 -64.5t-100 -23.5z" />
    <glyph glyph-name="ka.sub2" 
d="M-187 -178q-26 0 -43.5 4t-33.5 11l23 51q19 -8 46 -8q31 0 54.5 19t23.5 63q0 37 -21.5 60.5t-61.5 23.5q-33 0 -55 -14.5t-36 -41.5q3 -16 3 -33q0 -95 -81 -134l-39 52q25 17 36 36t11 47q0 44 -25.5 66.5t-61.5 22.5t-59.5 -22.5t-23.5 -66.5q0 -55 40 -83l-39 -52
q-31 19 -52.5 56t-21.5 80q0 67 45 106.5t110 39.5q44 0 76.5 -15t53.5 -40q16 23 47 39t69 16q76 0 118 -40.5t42 -100.5q0 -65 -41.5 -103.5t-102.5 -38.5z" />
    <glyph glyph-name="kha.sub" 
d="M-324 -271q-70 0 -125 34.5t-74 96.5q49 32 94 47t91 15q42 0 75 -11t57 -32q5 19 5 41q0 59 -34.5 92t-87.5 33q-83 0 -118 -78l-65 29q20 48 68 78.5t114 30.5q62 0 108 -25t70.5 -67.5t24.5 -93.5q0 -53 -24.5 -96t-70 -68.5t-108.5 -25.5zM-429 -159q39 -51 106 -51
q31 0 54.5 10t38.5 28q-21 16 -47 26.5t-60 10.5q-26 0 -49 -7t-43 -17z" />
    <glyph glyph-name="kha.sub2" 
d="M-323 -178q-54 0 -96 26t-56 80q27 19 62.5 33t75.5 14q27 0 50.5 -7.5t41.5 -17.5q1 10 1 20q0 29 -18 53t-62 24q-26 0 -48 -11t-35 -37l-59 26q16 37 54 58.5t89 21.5q68 0 110 -40.5t42 -100.5q0 -59 -41 -100.5t-111 -41.5zM-395 -90q25 -36 72 -36q22 0 37 7.5
t24 19.5q-12 10 -30.5 16.5t-41.5 6.5q-33 0 -61 -14z" />
    <glyph glyph-name="ga.sub" 
d="M-434 -270q-42 26 -69 73.5t-27 106.5t26.5 103t72.5 68t104 24q61 0 107.5 -24.5t73 -68.5t26.5 -102q0 -59 -29 -106.5t-71 -73.5l-45 57q29 21 46.5 51.5t17.5 71.5q0 61 -34 97.5t-91 36.5q-54 0 -88.5 -35t-34.5 -99q0 -40 16 -71t45 -52z" />
    <glyph glyph-name="ga.sub2" 
d="M-407 -177q-31 19 -53.5 56t-22.5 80q0 70 43.5 108t113.5 38q72 0 115.5 -38.5t43.5 -103.5q0 -46 -24 -83.5t-56 -56.5l-41 55q20 14 34 33.5t14 47.5q0 41 -23.5 64.5t-61.5 23.5q-36 0 -61 -21.5t-25 -64.5q0 -28 13.5 -49t32.5 -35z" />
    <glyph glyph-name="gha.sub" 
d="M-157 -271q-53 0 -97.5 20t-70.5 60q-30 -36 -75.5 -58t-99.5 -22q-86 0 -139 40t-53 104q0 41 20 68t53 52q23 17 23 35q0 7 -5.5 12t-16.5 5q-8 0 -18 -4t-22 -15l-42 38q25 22 43.5 32t51.5 10q41 0 64.5 -22t23.5 -53t-15.5 -49.5t-40.5 -39.5q-21 -16 -29.5 -33.5
t-8.5 -38.5q0 -32 29.5 -54.5t86.5 -22.5q53 0 92.5 35.5t39.5 97.5q0 41 -15.5 70.5t-44.5 51.5l46 58q48 -33 71 -80.5t23 -100.5q0 -26 -7 -51q19 -33 52 -57t82 -24q58 0 89.5 36t31.5 91q0 61 -34.5 91.5t-85.5 30.5q-35 0 -62 -11l-31 58q21 8 45.5 12.5t58.5 4.5
q56 0 98.5 -23t67 -65t24.5 -99q0 -53 -25 -96t-71 -68.5t-107 -25.5z" />
    </font>
</defs>
</svg>
